<?xml version="1.0" encoding="utf-8"?>
<!-- Generator: Adobe Illustrator 18.1.1, SVG Export Plug-In . SVG Version: 6.00 Build 0)  -->
<!DOCTYPE svg PUBLIC "-//W3C//DTD SVG 1.1//EN" "http://www.w3.org/Graphics/SVG/1.1/DTD/svg11.dtd">
<svg version="1.1" id="Layer_1" xmlns="http://www.w3.org/2000/svg" xmlns:xlink="http://www.w3.org/1999/xlink" x="0px" y="0px"
	 viewBox="50.1 170.9 495 500" enable-background="new 50.1 170.9 495 500" xml:space="preserve">
<g id="Change2_1_">
	<path fill="#BEC358" d="M179.9,486.6c0,0-25.6,4.5-52-19.1c-28.8-25.7-32-28.3-48.5-60.7c-12.7-24.7-35.5-69.1-13-143.6
		s55.5-83.1,77.9-86.5c22.5-3.5,50.3-12.9,88.3,14.7s54.5,51.1,56.3,93.5c1.7,42.4-4.3,115.8-41.6,158.3
		c-37.2,42.5-55.8,47.3-72,47.1"/>
</g>
<g id="Change4_1_">
	<path fill="#868735" d="M443.8,505.5c0,0-22.5,3.7-45.8-16.1c-25.3-21.7-28.3-24.1-42.7-51.4c-11.1-21.1-31.3-58.9-11.5-122.1
		c19.8-63.2,48.9-70.5,68.7-73.5c19.8-3,44.3-11,77.8,12.5c33.6,23.5,48.1,43.4,49.6,79.4s-3.8,98.3-36.7,134.5s-49.2,40.2-63.5,40"
		/>
</g>
<g id="Change1_2_">
	<path fill="#000000" d="M538.1,392.6l-0.4-0.4c-0.2,5.9-2.4,12.3-3.7,18.3v-0.4c-4.2,15.2-8.8,29.2-16.9,42.8
		c0.1-0.2,0-0.4,0.1-0.6c-0.2,0.7-0.4,1.6-1,2.3c-0.2,0.1-0.1-0.3,0-0.5c-2.3,2.4-5.2,8.3-7,9.5c-0.5,0.7-0.5,1.3,0,1.1
		c-1,1.2-2,2.3-3.1,3.6c-1.1,1.2-2.1,2.3-3.2,3.5c-2.1,2.3-4.3,4.7-6.5,7c-1.1,1.2-2.2,2.3-3.4,3.5s-2.2,2.3-3.4,3.4
		c-2.3,2.2-4.6,4.5-7,6.6c-0.5,0.3-0.7,0.2-0.8-0.1c-3.8,3.9-8.2,7.4-13.1,10.2c-4.9,2.8-10.4,5-16,5.9c-0.3,0.4,1.3,0.1,0.2,0.7
		c3.8-0.3,6.4-2.5,9.5-3.3l-0.3,0.4c2.3-0.7,0.1-1,2.5-1.6c1-0.2,0,0.5,0.4,0.3c1.2-0.6,2.3-1.2,3.4-1.8s2.2-1.4,3.3-2
		c2.1-1.5,4.1-2.9,5.8-4.7c0.6-0.1,1.8-0.8,3-1.7c1.2-1,2.3-1.9,3.2-2.2c0.8-1.1,1.9-1.8,1.9-2.5c6.8-5.6,12.9-11.9,18.9-18.5
		c3-3.2,5.9-6.8,8.6-10.4c2.7-3.6,5.1-7.4,7.3-11.3c1.5-4,3.7-8.1,5.8-12.3c2.1-4.3,4.2-8.8,5.6-13.6c0.1,0,0.1,0,0.1,0.1
		c0.3-1.6,0.8-3.5,1.4-5.5c0.5-2,1.2-4,1.7-5.8l0.3-3.3c3.5-11,5.5-22.7,6.8-34.4c1.3-11.7,1.7-23.4,1.8-35.2c0-3.4,0-6.7-0.2-9.9
		c-0.1-3.3-0.5-6.5-0.8-9.8c-0.8-6.4-2.3-12.6-4.6-18.6c-2.2-5.9-5.4-11.6-9.2-16.8c-3.8-5.1-8.3-9.9-13.4-14c0.1-0.1,0-0.3,0.5,0.2
		c-5.6-5-10.7-9.8-16.5-13.8l0.1-0.1c-7.3-4.8-15-10-23.3-13.8l-1.6-0.7c-0.5-0.2-1.1-0.4-1.6-0.6c-1.1-0.4-2.1-0.8-3.2-1.3
		s-2.1-0.7-3.2-1.1c-1.1-0.3-2.1-0.6-3.2-1c-4.3-1-8.7-1.7-12.9-1.6c-5.1-0.4-10.5-0.3-15.9,0.3c-5.4,0.5-10.8,1.6-16.2,2.5
		c-2.8,0.4-5.5,1-8.2,1.4l-4.1,0.8l-4,1.1c-5.3,1.6-10.4,3.9-15.1,6.8l-0.1-0.2c-7.3,4.8-13.7,10.6-19.1,17.3s-10.1,14-13.5,22.1
		c-2.1,3.9-3.7,8.3-5.3,12.5c-0.2,0.5-0.4,1.1-0.6,1.6l-0.5,1.6l-1,3.3c-0.6,2.2-1.4,4.3-1.9,6.6l-1.6,6.7c-0.5,2.2-1.2,4.5-1.6,6.7
		c-0.8,4.5-2,8.9-2.8,13.4c-0.7,2.7-1.4,5.6-1.5,8.8c-0.1,1.6-0.2,3.1-0.2,4.7l-0.1,2.3l0.1,2.4c0.1,6.4,0.6,12.5,0.4,17.8
		c-0.1,10.8,2,21.4,5.6,31.4c1.8,5,4.1,9.9,6.5,14.5c2.5,4.7,5.2,9.2,8.1,13.9c2.1,4.5,4.5,8.8,7,13c2.5,4.2,5.3,8.3,8.4,12
		c3.1,3.7,6.6,7.1,10.1,10.5c3.5,3.3,7,6.6,10.4,10c1.9,1.3,3.7,2.8,5.4,4.3c0.8,0.8,1.8,1.6,2.7,2.3c1,0.7,1.8,1.7,2.8,2.4
		c3.7,3.2,8,6.2,12.6,8.1l-0.2-0.4c1.5,1.2,3.5,1.7,5.4,1.9c1.8,0.3,3.5,0.5,4.5,1.6h-0.4c0.4,0.3,1,0.4,1.5,0.4s1.2-0.1,1.7-0.2
		c1.1-0.2,2-0.4,2.5,0.1l0.3-0.3c2.3,0.2,0.2,0.5,1.9,0.8c0.6,0,0.3-0.6,1.7-0.3c0,0.4,0.4,0.6,1,0.7c0.5,0.1,1.3,0.1,1.9,0.1
		c1.4,0,2.8-0.1,2.9,0.8c-1.3,0,2.1,0.6-0.8,1.1c0.4,0.1,1.7,0.1,2.8-0.1c1.1-0.1,2-0.5,1.8-0.8c0.2-0.8,1.6-1.7-0.8-2l-0.4,0.6
		c-0.8-0.5-0.6-0.2-1-0.6c-1.5,0.1-2.3-0.2-3.1-0.4c-0.7-0.2-1.4-0.6-2.4-0.8c0,0,0,0,0,0.1c-1.5,0.6-3.5,0-4.6-0.3l-0.4-0.4
		c-0.5-0.7-3.6,0.6-2.4-0.3c-3-0.4-6.2-1.4-9.3-2.4c-3.1-1.3-6.3-2.7-9.2-4.3c-0.5,0-1.7-0.7-2.5-1.2c-0.8-0.5-1.5-0.8-1.1-0.1
		c-0.4-0.8-1.7-2.1-3-3.2c-1.3-1.2-2.5-2.3-3.3-2.9c0.1,0,0.2-0.1,0.4,0.1c-1.1-1.6-2-2.1-3.1-2.7c-1-0.5-1.9-1.1-2.8-2.8
		c-1.2,0.4-4.7-4.5-6.9-4.8c-0.2-0.4-0.1-0.7,0.1-0.7c-4.8-4.1-9.5-9.2-12.8-13.1c-1-0.6-1.7-1.6-2.5-2.5c-0.8-1-1.6-2.1-2.3-3.2
		c-1.5-2.2-2.8-4.3-4.3-5.6c-1.5-2.9-3.5-7.7-6.2-11.5l0.3,0.3c-2.5-4.5-5.5-10.2-7.8-12.9c0.4-1.9-0.7-3.8-1.3-5.9
		c-1.9-2.9-4.6-9.1-6.6-13.9c0.3-1-1.6-3.9-0.8-4.5c-3-6.7-4.9-14.6-5.7-22.8c-0.2-2-0.4-4.1-0.4-6.2s0-4.1,0-6.2v-1.5l0.1-1.5
		c0.1-1.1,0.2-2,0.2-3c0.1-1,0.2-2,0.3-3c0.1-1,0.2-1.9,0.4-2.9v0.2c-0.3-2-1.1-4.5-1.5-6.6c0.1-0.2,0.2-0.1,0.2,0.3
		c0-2.9,1.4-5.4,1.6-8.2c0.1,0,0.1,0,0.2,0.5c0-1.4,0.4-2.7,0.7-4c0.3-1.4,0.8-2.9,0.8-4.5l0.2-0.1l0.1-2c0.2,0.1,0.6,0.3,0.3,1.3
		c0.3-1.5,0.6-3,1-4.5c0.2-0.7,0.3-1.5,0.5-2.2l0.6-2.2c0.8-3,1.6-5.9,2.4-8.9c1-3,1.9-5.9,2.9-8.9l0.7-2.2c0.2-0.7,0.5-1.5,0.8-2.2
		l1.6-4.3c4.5-11.6,10.2-23,18.1-32.6l-0.3,0.8c0,0,0.2-0.2,0.4-0.6c0.2-0.4,0.6-0.8,1-1.3c0.7-1,1.5-1.9,1.5-1.9
		c0.1,0.1,0,0.3-0.1,0.5c2.1-2.2,4.5-4.2,6.7-6.4c1.2-1,2.4-1.9,3.6-3c0.5-0.5,1.3-1,1.9-1.3c0.6-0.4,1.3-0.8,1.9-1.2
		c0,0.1-0.5,0.8,0.2,0.5c0.4-0.3,0.8-0.7,1.3-1c0.4-0.2,0.8-0.4,1.3-0.6c0.8-0.4,1.6-0.6,2.2-1c0.3-0.1,0.6-0.2,1-0.4
		c0.3-0.1,0.6-0.2,0.8-0.4c0.5-0.3,1.1-0.6,1.4-1.3c0.2,0,0.4,0.3,0.1,0.5c5.5-2.5,11.7-4,17.9-5c6.4-1,12.6-2.2,18.8-2.8
		c5.1-1.4,10.6-1.7,16.1-1.3c1.4,0.1,2.8,0.1,4.1,0.4c1.4,0.2,2.8,0.3,4.1,0.5c2.8,0.5,5.4,1,8.2,1.5l-0.1,0.2
		c6.9,1.6,13.6,4.7,19.8,8.5c6.2,4,12,8.5,17.8,12.9c4.7,3.9,8.1,6.3,12.4,10.6l-0.1,0.3c4.1,3.1,7.5,7.4,10.5,12
		c0.7,1.2,1.5,2.3,2.1,3.5c0.6,1.2,1.3,2.3,2,3.5s1.3,2.3,2,3.5c0.6,1.2,1.5,2.3,2.1,3.5l-0.7-0.5c1.3,1.3,2.2,6,3.1,5.1l0.2,1.9
		c0.5,0.8,1,1.6,1.3,2.4s0.5,1.7,0.8,2.5c0.4,1.7,0.8,3.4,1,5.1c0.4,3.5,0.6,7.2,1.5,11.7l-0.3-0.5c0.4,2.3,0.8,5.1,0.5,6.9
		c0-0.3-0.1-0.1-0.2-0.7c-0.8,7.4,0.4,15.7,0,23.5l-0.5-1c0.5,3.8-0.5,10.7-0.7,15.7l-0.2-0.3c0,0,0,0.6,0.1,1.3c0,0.6,0,1.3,0,1.3
		H540C539.6,380.2,539.2,386.4,538.1,392.6"/>
	<path fill="#000000" d="M277.9,355.1l-0.4-0.4c-0.3,6.9-2.8,14.3-4.1,21.3v-0.5c-4.8,17.7-9.9,33.9-18.9,49.9
		c0.1-0.3,0-0.4,0.1-0.7c-0.3,0.8-0.5,1.9-1.1,2.7c-0.2,0.2,0-0.3,0.1-0.6c-2.7,2.9-5.8,9.8-7.8,11.2c-0.6,1-0.6,1.5,0,1.2
		c-1.1,1.5-2.2,2.9-3.4,4.2c-1.2,1.4-2.4,2.8-3.6,4.1c-1.2,1.4-2.4,2.8-3.6,4.1c-1.3,1.4-2.5,2.8-3.7,4.1c-2.4,2.8-5.1,5.4-7.6,8.2
		c-1.3,1.4-2.7,2.7-3.9,3.9l-2,1.9c-0.6,0.6-1.4,1.3-2,1.9c-0.6,0.4-0.8,0.3-0.8,0c-4.3,4.6-9.3,8.7-15,12.1
		c-5.6,3.4-11.9,6-18.3,7.2c-0.4,0.4,1.4,0.1,0.2,0.7c1.1-0.1,2.1-0.4,3.1-0.7c1-0.3,1.9-0.6,2.8-1.1c0.8-0.4,1.7-0.8,2.5-1.2
		c0.8-0.4,1.7-0.7,2.7-1l-0.3,0.5c1.4-0.4,1.4-0.7,1.5-1c0.1-0.2,0.2-0.4,1.5-1c1.2-0.3-0.1,0.5,0.4,0.3c2.7-1.4,5.2-3,7.7-4.6
		c2.4-1.7,4.8-3.5,6.7-5.5c0.7-0.1,2-1.1,3.3-2.1c1.3-1.1,2.7-2.2,3.6-2.7c1-1.2,2.1-2.1,2.2-2.9c7.6-6.7,14.6-14.1,21.3-21.8
		c6.9-7.6,12.8-16.4,17.8-25.4c1.7-4.6,4.1-9.3,6.5-14.3c2.3-5.1,4.7-10.4,6.3-15.9c0.1-0.1,0.1,0,0.1,0.1c0.8-3.7,2.2-8.9,3.5-13.3
		c0,0,0.1-1,0.2-1.9c0.1-1,0.2-1.9,0.2-1.9c3.8-12.8,6.2-26.3,7.5-39.9s1.9-27.3,2-40.8c0-3.9,0-7.6-0.2-11.5
		c-0.1-1.9-0.1-3.8-0.3-5.6c-0.2-1.9-0.4-3.7-0.5-5.6c-1-7.4-2.4-14.6-4.8-21.6c-4.9-13.9-13.5-26.4-24.8-36.4
		c0.1-0.1,0-0.3,0.6,0.2c-0.7-0.7-1.6-1.5-2.3-2.2c-0.7-0.7-1.6-1.5-2.3-2.1c-1.6-1.4-3-2.9-4.6-4.2c-1.6-1.4-3.1-2.7-4.7-4
		c-1.6-1.3-3.2-2.5-4.9-3.7l0.1-0.1c-8.4-5.8-17-12.1-26.5-16.6c-1.2-0.5-2.3-1.3-3.6-1.7c-1.3-0.5-2.4-1-3.7-1.5l-1.8-0.7
		c-0.6-0.2-1.3-0.4-1.9-0.6c-1.3-0.4-2.5-0.7-3.7-1.2c-1.3-0.4-2.5-0.5-3.8-0.8c-1.3-0.2-2.5-0.5-3.7-0.7c-2.5-0.3-5-0.6-7.4-0.6
		c-5.9-0.5-12.2-0.4-18.3,0.3c-6.3,0.7-12.5,1.9-18.9,3.1c-3.2,0.5-6.4,1.1-9.5,1.7c-3.2,0.6-6.4,1.4-9.4,2.4
		c-1.5,0.5-3.1,1-4.6,1.6s-3,1.3-4.5,1.9c-1.4,0.7-2.9,1.5-4.2,2.2c-0.7,0.3-1.4,0.7-2,1.3l-2,1.3l-0.1-0.2
		c-8.3,5.7-15.4,12.9-21.3,20.8c-1.6,1.9-2.9,4-4.3,6l-2,3.1c-0.7,1.1-1.3,2.1-1.9,3.3c-1.2,2.2-2.4,4.3-3.6,6.6
		c-1.1,2.3-2,4.6-3.1,6.9c-0.5,1.2-1.2,2.3-1.7,3.5c-0.5,1.2-1,2.4-1.5,3.6c-1,2.4-1.9,4.9-2.8,7.4c-0.8,2.5-1.6,5.1-2.3,7.6
		c-0.7,2.5-1.6,5.1-2.2,7.6c-2.5,10.4-4.8,20.8-6.7,31.1c-0.7,3.2-1.5,6.6-1.7,10.2c-0.1,1.8-0.2,3.6-0.3,5.4c0,1-0.1,1.8-0.1,2.8
		l0.1,2.8c0.1,7.4,0.6,14.5,0.4,20.7c0,12.5,2.2,24.8,6.4,36.5l1.6,4.3l1.8,4.2c1.2,2.9,2.5,5.6,3.8,8.4c2.8,5.5,5.8,10.9,8.9,16.3
		c4.9,10.3,10.3,20.6,17.2,29.5c3.5,4.5,7.3,8.5,11.3,12.5c4,3.9,8.1,7.8,11.9,11.8c2.1,1.6,4.1,3.3,6.2,5.2c0.5,0.4,1,1,1.5,1.4
		c0.5,0.4,1.1,1,1.6,1.4c1.1,1,2,1.9,3.1,2.9c4.3,3.7,9.1,7.3,14.5,9.6l-0.2-0.4c0.8,0.6,1.9,1.2,3,1.5c0.5,0.2,1.1,0.4,1.6,0.5
		s1.1,0.2,1.6,0.3c1.1,0.2,2,0.4,3,0.7c0.8,0.2,1.6,0.6,2.1,1.2l-0.4-0.1c1,0.7,2.3,0.6,3.6,0.4c1.3-0.2,2.3-0.3,3,0.2l0.4-0.3
		c2.7,0.3,0.2,0.5,2.2,1c0.7,0,0.4-0.6,2-0.3c0,0.4,0.5,0.6,1.2,0.7s1.5,0.1,2.2,0.1c1.6,0,3.2,0,3.4,0.8c-1.5,0,2.4,0.6-1.1,1.1
		c0.5,0.1,1.9,0.1,3.2-0.1c1.3-0.2,2.3-0.5,2.1-1c0.2-0.8,1.8-1.8-1-2l-0.4,0.6c-1-0.5-0.7-0.2-1.1-0.6c-1.7,0.1-2.8-0.2-3.6-0.4
		c-0.8-0.2-1.6-0.6-2.8-0.8c0,0,0,0,0,0.1c-1.7,0.5-4-0.1-5.4-0.4l-0.5-0.4c-0.6-0.7-4.1,0.5-2.9-0.4c-1.7-0.2-3.5-0.7-5.3-1.2
		c-1-0.2-1.8-0.5-2.8-0.8c-0.8-0.3-1.8-0.5-2.8-1c-1.8-0.7-3.6-1.5-5.4-2.4l-2.7-1.4c-0.8-0.5-1.7-1.1-2.5-1.6
		c-0.5-0.1-1.9-0.8-2.9-1.5c-1-0.6-1.7-1.1-1.3-0.2c-0.5-1-2-2.3-3.5-3.7c-1.5-1.4-3-2.8-3.8-3.4c0.1,0,0.2,0,0.5,0.2
		c-2.4-3.7-4.7-2.5-6.7-6.4c-1.2,0.4-5.3-5.2-7.8-5.8c-0.2-0.5-0.2-0.7,0.1-0.8c-5.4-5-10.8-10.8-14.5-15.6c-2-1.7-3.8-4.2-5.4-6.9
		c-0.8-1.3-1.6-2.5-2.4-3.7c-0.8-1.2-1.6-2.2-2.4-3.1c-1.7-3.4-4-9-6.9-13.5l0.4,0.4c-2.9-5.3-6.3-11.9-8.7-15.2
		c0.4-2.1-1-4.3-1.6-6.8c-2.1-3.4-5-10.8-7.3-16.3c0.1-0.5-0.3-1.7-0.7-2.8c-0.3-1.1-0.6-2.1-0.3-2.4c-3.2-7.8-5.3-17.1-6.3-26.6
		l-0.3-3.6c-0.1-1.2-0.2-2.4-0.2-3.6c0-2.4,0-4.8,0-7.2v-1.8l0.1-1.8c0.1-1.2,0.2-2.3,0.3-3.5c0.1-1.2,0.2-2.3,0.3-3.5
		c0.1-1.2,0.2-2.2,0.4-3.4v0.2c-0.2-2.3-1.1-5.1-1.5-7.5c0.1-0.2,0.2-0.2,0.2,0.3c0-3.3,1.4-6.3,1.7-9.5c0.1,0,0.1,0,0.2,0.6
		c0.1-3.1,1.5-6.3,1.7-9.9l0.2-0.1l0.2-2.3c0.2,0.1,0.6,0.3,0.3,1.5c0.4-1.7,0.7-3.5,1.2-5.2l0.5-2.7c0.2-0.8,0.4-1.7,0.6-2.5
		c1-3.5,1.8-6.9,2.8-10.4c1-3.5,2.1-6.9,3.2-10.3c1-3.5,2.3-6.9,3.5-10.3c5-13.6,11.3-26.9,20.3-38.3l-0.4,1.1c0,0,0.2-0.3,0.4-0.7
		c0.3-0.4,0.6-1.1,1.1-1.6c0.8-1.2,1.7-2.2,1.7-2.2c0.1,0.1,0,0.3-0.2,0.6c4.9-5.2,10-10.6,15.9-14.3c0,0.1-0.6,1,0.2,0.5
		c1-0.8,1.9-1.5,2.9-2c1-0.4,1.8-0.8,2.7-1.2s1.5-0.6,2.1-1.1c0.6-0.3,1.2-0.7,1.6-1.4c0.2,0,0.5,0.2,0.1,0.5
		c6.4-3.1,13.5-4.9,20.7-6c7.3-1.2,14.6-2.7,21.8-3.4c5.9-1.5,12.3-1.9,18.8-1.4c6.5,0.4,12.8,1.7,19,3.2l-0.1,0.2
		c8,2,15.6,5.8,22.7,10.5c1.7,1.3,3.5,2.4,5.2,3.7c1.8,1.2,3.4,2.5,5.1,3.9l2.5,1.9l2.5,2c1.7,1.4,3.4,2.7,5,4
		c2.7,2.3,5,4.1,7.1,6.2c1.1,1,2.2,2,3.4,3c1.1,1.1,2.2,2.2,3.5,3.5l-0.1,0.4c0.5,0.5,1.2,1,1.7,1.5c0.5,0.5,1.1,1.1,1.6,1.6
		c1.1,1.2,2.1,2.2,3.1,3.5c1.9,2.4,3.7,5,5.3,7.7c1.7,2.7,3.1,5.5,4.7,8.3c0.7,1.4,1.4,2.9,2.1,4.1c0.3,0.7,0.7,1.4,1.2,2
		c0.3,0.7,0.7,1.4,1.1,2.1l-0.7-0.6c0.7,0.7,1.4,2.5,1.9,3.9c0.5,1.5,0.8,2.7,1.4,2l0.3,2.2c1.1,1.9,1.7,3.8,2.1,5.8
		c0.2,1,0.4,1.9,0.6,3c0.1,1,0.2,2,0.3,3.1c0.1,1.1,0.2,2,0.3,3.1s0.1,2.1,0.3,3.3c0.2,2.2,0.6,4.6,1,7.1l-0.3-0.6
		c0.4,2.8,0.8,5.9,0.6,8c-0.1-0.3-0.1-0.2-0.2-0.8c-0.8,8.7,0.4,18.2,0,27.4l-0.5-1.1c0.5,4.5-0.6,12.5-0.8,18.2l-0.2-0.4
		c0,0,0,0.7,0.1,1.5c0,0.7,0,1.5,0,1.5h-0.5C279.6,340.7,279.1,347.8,277.9,355.1"/>
</g>
<g id="Change5_1_">
	<g>
		<path fill="#4F3D16" d="M458.9,636.4c0,0,0.3-20.3-1.2-42.7c-1.5-22.5-0.5-100.2,0.4-115.5c1.7-28.8,4.5-54.4,8.1-67.1
			c4-14.2,5.8-22.6,8.6-31.5c7.1-23.3,20.8-59.1,15.4-63c-3.5-2.5-4.9,14.1-8.9,26.2c-3.4,10.2-8.5,25.3-8.5,25.3s3.4-31.1-0.6-33
			c-4-2-4.3,4.8-3.7,14.5s-6.2,48.4-10.9,59.2c-3.6,8.1-11.2-35.2-15.1-62c-0.2-1.6-0.4-3-0.6-4.5c-1-6.8-1.6-12.1-1.7-14.3
			c-0.7-10.9,4.8-37-1.7-39.1c-5.9-1.9-3.6,46.1-3.6,46.1S422,302.3,419,304c-3,1.7-1.6,1.8-0.8,4.8c1.5,5.8,14.2,33.3,15.3,40.8
			c1.7,12.3,7.1,52,4.6,61.2c-2.5,9.1-3.9-1.3-6.6-8.5c-4.2-11.5-19.3-41.4-20.3-45.3c-0.7-3-2.8-31.2-5.4-22.5
			c-3.2,10.3,8.8,47.2,8.8,47.2s-9.8-13.9-12.6-10.7c-2.9,3.2,0,0,9.6,12.7c7.7,10.3,9,15.9,16.1,32.1c2.8,6.3,6.4,21,5.7,55.6
			c-0.3,17.6-0.5,101.7-1.5,120.9c-0.8,16.8-2.3,47.4-1.5,49.5C431.4,644.1,460.1,655.1,458.9,636.4"/>
		<path fill="#4F3D16" d="M456.9,311.9c0,0,0-11.7,2.5-9.5c2.5,2.1-2.5,24.2-2.5,24.2s8.4-12.8,9.5-10.4c1.4,2.9-12.8,22-12.5,23.8
			c0.4,3-5.6,20.8-6.4,25.9c-1.3,8.4,0,22.5,0,22.5l-7.2-26.7c0,0,5.6-10.4,7.2-14.6c1.6-4.1,7-19.6,6-25c-1-5.4-7.4-17.9-3.9-17.5
			c3.5,0.4,6.9,10.4,6.9,10.4L456.9,311.9z"/>
		<path fill="#4F3D16" d="M382.7,315.3c0,0-8-8.8-4.6-8.9s14.5,19.9,14.5,19.9s-2.4-15,0.1-13.9c3,1.3,5.3,24.6,6.7,25.9
			c2.2,2,9.9,19.2,12.8,23.5c4.8,7.1,10,23.6,10,23.6l-13.1-20.5c0,0-8-13.1-9.5-17.4c-1.6-4.1-8.1-19.2-12.5-22.7
			c-4.3-3.5-15.2-11.5-15.2-11.5c2.8-3.9,12.6,4.2,12.6,4.2L382.7,315.3z"/>
		<path fill="#4F3D16" d="M466.5,418.5c0,0,7.2-4.9,11.3-9c4.2-4,13.4-6.7,19.5-6.7c6,0,12.3-5.1,12-7.5c-0.4-2.3-11,3.1-16.2,3.4
			c-5.1,0.4,1.3-5.7,3.5-11.6c2.2-5.8,2.2-12.5-0.6-11.1c-3,1.4-6.6,18.6-9.8,20.8c-3.2,2.2-10.2,5.1-11.3,6
			c-1.1,1.1,1.3-6.3,5.9-14.6c4.7-8.4-2-9.1-3.9-3.4c-2,5.8-3.7,15.5-5.8,19.3c-2.1,3.8-9.3,11.3-9.3,11.3l-1,6.7L466.5,418.5z"/>
	</g>
</g>
<g id="Change1_1_">
	<path fill="#000000" d="M463.3,394.3l0.2,0.8c1.2-6.9,2.5-14.1,3.8-21.5c1.3-7.4,2.1-15,1.8-22.4l0.1,1c0-1,0-2-0.1-3
		c0-1-0.1-2-0.1-3c0-1,0.2-1.9,0.4-2.9l0.3-1.4c0.1-0.4,0.1-0.7,0.4-1.1c0.4-0.6,1.4-0.7,2.1-0.4c0.3,0.1,0.6,0.4,0.8,0.7
		c0.2,0.3,0.2,0.7,0.3,1.2c0.2,1,0.4,1.9,0.5,2.8c0.1,1,0.1,1.9,0.2,2.9c0.4,7.7-0.4,15.3-1,22.9l-0.1,1.5l0.7-1.3
		c1-1.9,1.7-3.9,2.3-5.8l2-5.9c1.4-3.9,2.7-8,3.9-11.9c1.3-4,2.3-8.1,3.3-12.2c0.4-2,0.8-4.1,1.4-6.2c0.5-2,1.3-4,1.9-6.2
		c0.1-0.5,0.5-0.8,1-1.2c0.2-0.1,0.4-0.3,0.7-0.3c0.3,0,0.5,0.1,0.8,0.2c0.4,0.3,0.7,0.6,1,1.3c0.1,0.5,0.1,1,0.2,1.5
		c0.1,1,0.2,2,0.2,3c-0.1,1.1-0.3,1.9-0.5,3c0.1-0.5,0-0.7,0.1-1.4c-0.2,1.8-0.4,3.7-1,5.7c-0.2,0.5,0-0.5,0.1-1.2
		c-1.2,3.7-2.3,9.3-3.8,14.5c-1.5,5.2-3,10-3.9,12.2c-0.6,2.1-0.6,3.1-0.1,2c-2.7,8.4-5.5,16.9-8.2,25.6c-1.3,4.3-2.5,8.7-3.7,13.1
		c-0.5,2.2-1.2,4.5-1.7,6.7l-1.8,6.7l-1.6-1c2.1-1.9,3.9-4.1,4.9-6.7c0.3-0.6,0.4-1.3,0.6-2l0.6-2.1l1.2-4.2
		c0.7-2.9,1.6-5.6,2.3-8.5c0.2-0.8,0.6-1.7,1.2-2.3c0.2-0.3,0.5-0.6,0.7-1l0.4-0.4l0.2-0.2c0.1-0.1,0.2-0.2,0.3-0.3
		c0.8-0.7,2.1-1,3.2-0.7c0.2,0,0.3,0.1,0.5,0.2c0,0,0.4,0.2,0.4,0.3c0.2,0.2,0.4,0.4,0.6,0.6c0.3,0.4,0.5,0.8,0.6,1.6
		c0,0.2,0,0.3,0,0.5v0.1v0.1l0,0v0.1c0,0.1-0.1,0.3-0.1,0.4c-0.1,0.2-0.1,0.4-0.2,0.4c-0.1,0.2-0.2,0.1-0.2-0.1
		c-0.3,1.6-0.8,3.2-1.5,4.7s-1.3,2.9-1.9,4.3c-0.6,1.4-1.3,2.9-1.9,4.2c-0.2,0.6-0.5,1.2-0.6,1.7v0.2v0.1h0.1l0.4-0.2l0.8-0.4
		l1.1-0.5l2.2-1.1l1.1-0.5c0.3-0.2,0.6-0.3,1-0.5c0.6-0.3,1.2-0.7,1.6-1.3c1-1,1.6-2.1,2.1-3.5c1.2-3.1,2.3-6,3.5-9.1l0.8-2.2
		c0.1-0.4,0.3-0.7,0.4-1.2l0.3-0.6l0.1-0.3l0.2-0.4c1.3-2.4,3-4.3,5.2-3.4c1,0.5,1.4,1.4,1.7,2.5c0.1,0.6,0.2,1.3,0.2,1.9
		c0,0.3,0,0.6,0,1v0.6c-0.1,1.8-0.4,3.5-1,5.1c-0.5,1.7-1.3,3.2-2,4.7c-0.4,0.7-0.8,1.5-1.3,2.1c-0.4,0.6-0.8,1.4-1.3,2
		c-0.3,1,1.6-2,0.5,0.2c1.1-1.6,2.3-3.4,3.2-5.3s1.5-3.8,1.8-5.8c0.2-1,0.3-2,0.3-3v-0.7c0-0.3,0-0.7,0-1.2
		c-0.1-0.7-0.1-1.5-0.3-2.2c-0.2-0.6-0.4-1.2-0.8-1.6c-0.4-0.4-1-0.7-1.6-0.8s-1.3,0-1.8,0.3c-0.5,0.2-1.1,0.6-1.5,1.2
		c0,0,0.2-0.3,0.4-0.6c0.2-0.3,0.5-0.5,0.5-0.5c-0.7,0.4-1.4,1.3-1.8,1.9c-0.4,0.6-0.6,1.2-0.8,1.5c-0.1,0.3-0.2,0.5-0.2,0.6
		s0,0.2,0,0.3c0,0.2,0,0.3-0.2,0.8c-0.1,0.4-0.4,1.2-1.1,2.4c-1,2-0.1-0.6-0.5,0.3c-1.1,2.8-2.1,5.5-3.1,8.3c-0.5,1.5-1,2.5-1.6,3.5
		s-1.6,1.7-2.7,2.2c-1.3,0.6-2.5,1.3-3.8,1.9l-0.4,0.2h-0.1l-0.2,0.1l-0.4,0.2l-0.2,0.1l-0.1,0.1c0,0-0.1,0.1-0.1,0s0-0.2,0-0.4
		c0-0.1,0.1-0.3,0.1-0.4l0.1-0.3v-0.2l0.2-0.4c0.8-1.1,2.1-3.9,3.6-6.9c0.7-1.5,1.5-3.2,1.9-4.8c0.1-0.4,0.2-0.8,0.3-1.2
		c0-0.2,0.1-0.4,0.1-0.5v-0.1c0-0.1,0-0.3,0-0.4c0-0.2,0-0.4,0-0.6c-0.1-0.7-0.3-1.2-0.6-1.6c-0.3-0.4-0.6-1-1.3-1.4
		c-0.3-0.2-0.5-0.2-0.7-0.2c-0.1,0-0.3-0.1-0.5-0.1c-0.3,0-0.7,0-1.1,0c-0.6,0.1-1.4,0.3-1.9,0.7c-0.2,0.2-0.5,0.4-0.6,0.6
		c-0.1,0.1-0.2,0.3-0.4,0.4c-0.2,0.3-0.5,0.6-0.7,0.8c-0.4,0.6-0.7,1.3-1.1,1.8c-0.1,0.3-0.2,0.6-0.2,0.8c0,0.2,0,0.4,0,0.5
		c-1.3,4.1-2.4,8.3-3.7,12.4l-0.4,1.6c-0.1,0.5-0.3,1.1-0.4,1.5c-0.3,1-0.7,1.8-1.3,2.7c-1.1,1.7-2.3,3.2-3.9,4.7l2.7,1.6
		c0.5-1.9,1.1-3.9,1.6-5.8c0.5-1.9,1-3.9,1.5-5.8c1.1-3.9,2.1-7.7,3.3-11.7c2.3-7.7,4.8-15.5,7.3-23.2s5.1-15.5,7.3-23.5
		c1.1-4,2-8.1,2.9-12.1l0.6-3c0.1-0.4,0.2-1.1,0.3-1.7c0-0.6,0-1.2,0-1.7s-0.1-1.1-0.2-1.6l-0.1-0.7l-0.1-0.4
		c-0.1-0.3-0.1-0.5-0.2-0.7c-0.2-0.4-0.4-0.6-0.7-1c-0.3-0.3-0.5-0.5-1.1-0.7c-0.1-0.1-0.4-0.1-0.4-0.1c-0.1,0-0.5,0-0.6,0
		c-0.3,0-0.6,0.1-0.7,0.2c-0.4,0.2-0.6,0.4-1,0.6c-0.3,0.3-0.6,0.7-0.8,1.3c-0.5,1.9-1.1,3.7-1.6,5.6c-0.5,1.9-1,3.9-1.4,5.9
		c-0.8,3.9-1.9,8-3.3,11.9c-1.3,4-2.8,8.1-4.2,12.2c-0.7,2-1.5,4.1-2.2,6.3c-0.7,2.1-1.4,4.1-2.4,5.9l2.3,0.6c0-1.2,0.2-2.3,0.3-3.6
		l0.3-3.6c0.2-2.4,0.3-4.9,0.4-7.3c0-0.1,0.1-0.1,0.1,0c0-1.9,0-4-0.1-6.3c0-1.2-0.1-2.3-0.2-3.5c-0.1-1.2-0.2-2.4-0.5-3.7l-0.2-1
		l-0.2-1.1c-0.2-0.8-0.7-1.6-1.5-2c-0.7-0.4-1.6-0.5-2.4-0.3c-0.8,0.1-1.6,0.7-1.9,1.5c-0.2,0.3-0.3,0.7-0.4,1.2l-0.2,1
		c-0.1,0.6-0.2,1.2-0.3,1.8c-0.1,0.6-0.2,1.3-0.2,1.8c0,0.6,0,1.3,0,1.8c0,0,0.2,1.9,0.4,3.7c0.1,1.9,0.2,3.8,0.2,3.8
		c-0.3,9.6-2.2,19.2-4,28.7c-1,4.8-1.9,9.5-3.2,14.3c-0.6,2.3-1.3,4.8-1.9,7.1l-0.5,1.8l-0.6,1.7l-1.3,3.4c-0.1,0.1-0.1,0.2-0.3,0.4
		c-0.2,0.2-0.4,0.4-0.6,0.6l1.6-0.1c-0.3-0.3-0.6-0.5-0.7-0.6c-0.1-0.1-0.2-0.2-0.3-0.4c-0.7-1.7-1.6-3.6-2.1-5.3
		c-0.4-1.8-1-3.8-1.4-5.7c-1-3.8-1.8-7.7-2.7-11.6c-0.4-1.9-0.8-3.9-1.2-5.8l-0.5-3c-0.2-1-0.4-2-0.4-2.9c-0.4-3.7,0.4-7.6,1.5-11.3
		c1.1-3.8,2.2-7.6,3.3-11.6c0.5-1.9,1.1-3.9,1.5-5.8c0.2-1,0.4-2,0.6-2.9c0.2-0.8,0.5-1.8,1-2.7c0.7-1.7,1.8-3.4,2.9-5.1l3.2-5.1
		l3.2-5.1l1.6-2.5c0.3-0.5,0.5-1,0.7-1.5c0.1-0.2,0.2-0.5,0.3-0.7l0.3-0.8c0.3-0.7-0.1-1.9-0.1-2.1v-1.5l-1.6,0.4
		c-0.1,0-0.3,0.1-0.5,0.1s-0.6,0.1-0.8,0.2c-0.3,0.1-0.5,0.3-0.7,0.5l-0.5,0.4c-0.3,0.3-0.6,0.6-1,0.8l-0.6,0.7
		c-0.8,1-1.5,1.9-2.3,2.8l-0.1,0.1c0,0,0,0,0-0.1V325l0.1-0.4l0.2-0.8l0.3-1.7l0.1-0.4l0.1-0.8l0.3-2c0.2-1.4,0.3-2.7,0.5-4l0.3-2
		l0.1-1l0.1-0.5c0-0.2,0-0.4,0-0.6c0-0.8-0.1-1.6-0.2-2.3c-0.1-0.5-0.2-1.1-0.6-1.5c-0.1-0.2-0.4-0.4-0.5-0.5s-0.2-0.2-0.2-0.2
		l-0.8-1.1l-1.2,1c0,0-0.1,0.1-0.2,0.2c-0.2,0.1-0.3,0.2-0.5,0.4c-0.3,0.3-0.6,0.6-0.7,1.1c-0.2,1-0.2,1.4-0.3,2l-0.4,2.7
		c-0.1,0.4-0.1,0.7-0.1,1.2c0,0.2,0,0.4-0.1,0.5l-0.1,0.3c0,0-0.1-0.1-0.1-0.2s-0.4-0.7-0.7-1.2l-1-1.4l-0.8-1.3l-0.4-0.6
		c-0.1-0.2-0.2-0.4-0.5-0.6c-0.5-0.4-1.3-0.8-1.9-1c-0.3-0.1-0.6-0.1-1.1-0.1c-0.3,0-0.8,0.2-1.1,0.4c-0.5,0.5-0.5,1-0.7,1.5
		c-0.1,0.5-0.2,1.3,0,2.2s0.4,2,0.7,3.2l0.5,1.6l0.4,1.3c0.4,1.3,1,2.7,1.6,3.9c1.1,2.2,1.5,4.7,1.5,7.2c0,2.5-0.6,4.9-1.4,7.5
		c-0.7,2.5-1.5,5.1-2.3,7.6c-0.8,2.5-1.8,5-2.8,7.4l-0.3,0.6l-0.2,0.5l-0.2,0.5l-0.1,0.2c0,0,0,0.1-0.1,0.1v-0.1l-0.2-1.1l-0.3-2.1
		c-0.4-2.7-0.7-5.3-1.2-8.1c-0.4-2.7-0.7-5.3-1-8.1c-0.3-2.7-0.2-5.2-0.2-8c0.2-5.5,0.4-10.9,0.6-16.5c0.1-2.8,0.2-5.5,0.3-8.4
		c0-1.5-0.3-3-0.7-4.5c-0.2-0.8-0.6-1.5-1.1-2.1l-0.6-1c-0.3-0.4-0.5-0.8-0.8-1.3c-0.4,0-1,0-1.5,0h-0.7h-0.4
		c-0.1,0-0.1,0.2-0.2,0.2c0-0.1-0.1,0-0.1-0.1c0,0,0-0.1,0.1-0.1c0,0,0-0.1,0.1-0.1c0,0,0.1,0,0.2,0c0.3,0,0.7,0,1.5,0h-1.4
		c-0.1,0-0.2,0-0.3,0l-0.1,0.2l-0.3,0.5l-0.5,1l-0.3,0.8c-0.4,1.1-0.7,2.1-1,3.2c-0.4,2.1-0.5,4.1-0.6,6.2c-0.3,4-0.5,8.1-0.5,12
		c0,2-0.1,3.9,0,5.9v3v2.5l0.1,3.1l0.1,1.6c0,0.3,0,0.5,0,0.8v0.1v-0.1l-0.1-0.2l-0.2-0.3c-0.2-0.3-0.4-0.7-0.5-1.2v-0.3l-0.8-1.6
		l-1.1-2c-1.2-2.3-2.2-4.7-3.4-7c-1.2-2.3-2.2-4.8-3.4-7.1c-0.1-0.3-0.3-0.6-0.4-1l-0.2-0.4l-0.3-0.5c-0.5-0.7-1-1.5-1.5-2.1
		c-0.5-0.6-1.1-1.1-1.5-1.5c-0.2-0.2-0.6-0.3-1-0.3c-0.4,0-0.7,0.1-1.1,0.3c-0.6,0.4-1.3,0.8-1.6,1.6c-0.1,0.3-0.1,0.6-0.1,1
		c0.1,0.3,0.2,0.6,0.3,1l1.5,3.8c1,2.5,2,5.1,3,7.6l3,7.6l1.5,3.8l1.5,3.7c2,4.9,4,9.8,5.1,14.8c1.2,5.1,1.7,10.3,2.4,15.4
		c1.3,10.3,2.7,20.4,3.4,30.2c0.1,2.9,0.1,5.7,0,8.8c0,1.5,0,3.1-0.1,4.7c0,0.4,0,0.7,0,1.2c0,0.3-0.1,0.7-0.2,1.2
		c-0.2,0.7-0.5,1.5-0.8,2.3c0,0.2-0.2,0.4-0.3,0.5c-0.1,0.1-0.4,0.3-0.6,0.5h0.5c-0.3-0.3-0.6-0.5-0.8-0.8c-0.2-0.3-0.4-0.7-0.5-1.1
		c-0.3-0.7-0.5-1.6-0.7-2.4c-0.4-1.7-1.1-3.3-1.6-5c-1.2-3.3-2.5-6.6-3.9-9.8c-1.5-3.3-3-6.5-4.6-9.8c-1.6-3.3-3.1-6.5-4.7-9.8
		c-1.6-3.3-3.2-6.6-4.8-9.9c-0.7-1.7-1.6-3.3-2.3-5c-0.7-1.7-1.2-3.5-1.5-5.3c-0.5-3.7-1.1-7.3-1.7-11l-0.8-5.5
		c-0.1-1-0.2-1.8-0.4-2.8c-0.2-1-0.7-1.8-1.1-2.7l-0.1-0.2h-0.2c-0.2,0-0.4,0-0.7,0h-0.2l-0.1,0.2c-0.3,0.8-0.7,1.8-1,2.8
		c-0.2,1-0.3,1.9-0.3,2.9c0,0.5,0,1,0,1.5c0,0.4,0,0.8,0,1.3c0,0.8,0.1,1.7,0.2,2.5c0.2,1.7,0.6,3.5,0.7,5.2c0,0.1-0.1,0.3-0.1,0.2
		l-0.2-0.3l-0.3-0.5l-0.6-1.2l-1.4-2.2l-2.8-4.7c-0.4-0.8-1.1-1.7-1.5-2.5c-0.4-0.8-0.5-1.8-0.7-2.8c-0.8-3.8-1.6-7.5-2.4-11.2
		l0.2,0.1c-0.4-2-0.8-4-1.3-6.2c-0.2-1.1-0.4-2-0.8-3.1c-0.4-1-1.1-1.9-1.9-2.5l-0.2-0.1l-0.1,0.2c-0.1,0.3-0.3,0.6-0.4,1.1
		c-0.2,0.3-0.2,0.7-0.2,1.2l0.1,2.2l0.2,4.1l0.1,2l0.1,1.1c0,0.2,0,0.3,0,0.5c0,0.1,0,0.2-0.1,0.2v0.1l-0.1-0.1
		c-0.7-1.2-1.5-2.3-2.2-3.4c-1.6-2.3-3.2-4.8-4.8-7.1l-2.4-3.7c-0.4-0.6-0.7-1.3-1.4-1.8c-0.5-0.5-1.1-1.1-1.7-1.5
		c-0.5-0.5-1.5-0.3-2-0.4l-0.3-0.1v0.3c0,0.4-0.3,1.4,0.1,1.9l1.4,2.2c0.4,0.6,0.8,1.4,1.4,2c0.5,0.6,1,1.3,1.4,1.9
		c0.2,0.3,0.4,0.6,0.6,1c0.1,0.1,0,0-0.1,0l-0.1-0.1l-0.3-0.1l-0.5-0.3c-1.4-0.8-2.8-1.6-4.1-2.3c-0.3-0.2-0.7-0.3-1.1-0.4
		c-0.4-0.1-1-0.2-1.5-0.2c-1.1-0.1-2.1,0.2-3.1,0.7l-0.3,0.1v0.3v0.6v0.3l0.2,0.2c3,2.2,5.9,4.5,9.1,6.6c1.6,1.1,3.2,2,4.6,3.2
		c1.4,1.2,2.7,2.5,3.8,3.9c1.2,1.5,2.2,3,3.2,4.6s1.7,3.3,2.7,5c0.4,0.8,0.8,1.7,1.2,2.5l1.2,2.7c0.7,1.7,1.6,3.5,2.4,5.2
		c1.6,3.4,3.3,6.7,5.2,9.9c1,1.6,1.9,3.3,2.9,4.9l1.5,2.4l0.7,1.2l0.4,0.6c0.1,0.2,0.2,0.3,0.2,0.4c1.1,3.4,2.1,6.9,3.1,10.3
		l0.1,0.3c0,0.1,0,0-0.1,0l-0.1-0.1c-0.1-0.1-0.3-0.2-0.4-0.4l-0.8-0.8l-1.7-1.8l-1.8-1.9c-0.3-0.3-0.5-0.6-1.1-1.1
		c-0.4-0.4-1-0.7-1.4-1c-0.5-0.3-1-0.5-1.5-0.7c-0.5-0.3-1.4-0.3-2,0c-0.6,0.3-1,0.8-1.3,1.3c-0.2,0.2-0.4,0.5-0.4,1
		c0,0.4,0.3,0.7,0.5,1c0.2,0.2,0.5,0.3,0.6,0.5l0.6,0.5l1.3,1.1c0.8,0.7,1.7,1.5,2.5,2.2c3.3,3,6,6.5,8.6,10.1
		c2.5,3.6,4.7,7.5,6.6,11.6c1.8,4,3.6,8.1,5.3,12.2c1.8,4,3.4,8.2,4.3,12.4c1.1,4.2,1.7,8.6,2.1,12.9c0.4,6.5,0.6,13.6,0.7,20.8
		c0,7.3,0.1,14.7,0.2,22.3c0.2,15,0.3,29.6-0.3,41.9c-0.5,12.6-0.8,25.1-1.1,37.5c-0.1,3.1-0.1,6.3-0.2,9.3
		c-0.1,3.1-0.1,6.3-0.2,9.3c-0.2,6.3-0.4,12.4-0.6,18.7s-0.3,12.4-0.5,18.7c-0.1,3.1-0.1,6.3-0.1,9.3s0,6.3,0,9.3v4.7
		c0,0.8,0.3,1.7,1.1,2.1c0.6,0.5,1.5,0.7,2.1,1c1.5,0.5,2.9,1.2,4.5,1.6l4.6,1.1l2.3,0.5c0.4,0.1,0.7,0.1,1.2,0.1h1.2h2.3h1.2h0.6
		c0.2,0,0.3,0,0.5-0.1c1.5-0.5,3-1,4.2-1.8c1.3-0.8,2.2-2,2.7-3.5c0.5-1.3,0.6-2.8,0.6-4.1c0-1.4,0-2.9,0-4.3l-0.1-8.7
		c-0.1-5.8-0.2-11.7-0.3-17.4c-0.3-11.6-1-23.1-1.4-34.7c-0.1-2.9-0.2-5.7-0.2-8.7c0-2.9,0-5.7,0-8.6c0-5.7,0-11.5,0.1-17.2
		c0.1-11.5,0.2-22.8,0.6-34c-0.1-5.3-0.1-10.8,0.3-16.4c0.4-5.5,1-11.2,1.5-17c0.5-5.7,1.1-11.6,1.7-17.4c0.6-5.8,1.5-11.7,2.2-17.6
		l-0.3,0.8c1-4.2,1.4-9,1.7-13.4c0.1-0.6,0.4-1.3,1-1.7c2.7-2.2,5.1-4.1,7.1-5.1l-0.6,0.5c2-1.2,3.8-3,5.5-4.7
		c0.8-0.8,1.7-1.7,2.4-2.3c0.8-0.6,1.6-1.1,2.3-1.3l0.5-0.6c1.3-0.6,1.9-1,2.3-1.1c0.4-0.1,0.4-0.1,0.4,0s-0.1,0.2,2-0.4
		c0.7-0.2,0.8-0.4,1.2-0.6c0.3-0.2,0.8-0.4,2.5-0.7c0.4,0.4,3.7-0.2,7-0.4c1.7-0.1,3.3-0.4,4.5-0.6c1.3-0.3,2.1-0.5,2.3-0.2
		c-1.4,0.6-0.2,0.3,0.5,0.1c0.3-0.1,0.6-0.1,0.4,0.1c-0.2,0.2-1,0.7-2.7,1.3c0.5-0.1,1.5-0.4,2.5-1c1.1-0.5,2.3-1.4,3.3-2.2
		c2-1.9,2.9-3.9,2.4-3.7c0-0.5,0.3-1.6,0.2-1.9c0-0.2-0.2-0.2-0.5,0.1c-0.3,0.3-0.8,1-1.7,2c0,0-0.1,0.3-0.1,0.5
		c-0.1,0.3-0.2,0.5-0.2,0.5c-1.6,1.1-1.2,0.8-1.8,1.1c-1.3,1.1-2.5,1.7-3.6,2s-2,0.4-2.9,0.5c-0.8,0.1-1.6,0-2.5,0c-1,0-2,0-3.4,0
		c0.1,0,0.1,0,0,0c-1.8,0.4-3.9,0.8-6,1.4c-2,0.5-4,1.2-5.4,1.7l-1.2,0.3c-1,0.2-2.8,1.5-4,2.7c-1.3,1.2-1.9,1.9-1.4,0.8
		c-3.9,3.1-8.1,6.3-12.8,10c-0.4,0.3-0.7,0.7-1,1.2c-0.2,0.4-0.5,1-0.6,1.6c-1.2,9.2-2.8,19.5-3.8,29.8c0.2,2.3-1,12.6,0,9.1
		c-1.1,4-2.1,16.3-2.3,20.9c-0.1-0.2-0.1-0.4,0-1.1c-0.7,4.3-0.7,7-0.6,9.6c0.1,2.5,0.2,5.1-0.4,9.2c0.7,1.3-0.4,15.1,0.5,19.8
		c-0.2,1.1-0.3,1.4-0.5,1c-0.1,15-0.5,31.5-0.5,44.1c0.8,10.8,0.5,26.2,1.8,35.4c0,7.6-0.2,20.1,0.4,30.9l-0.1-1.1
		c0,1.5,0.1,3.1,0.1,4.7s0.1,3.1-0.1,4.6c-0.2,1.3-0.6,2.4-1.5,3.3c-0.8,0.8-2,1.5-3.3,1.9c-0.4,0.1-0.7,0.3-1.2,0.4l-0.6,0.1h-0.1
		c0,0,0,0-0.1,0h-0.1c-0.7,0-1.6,0-2.3,0c-0.7,0-1.5,0-2.2,0.1c-0.3,0-0.7,0-1.1,0c-0.1,0-0.1,0-0.1,0l-0.5-0.1
		c-2.7-0.5-5.2-1.1-7.1-1.4c-0.7-0.5-1.6-1-2.4-1.5c-0.4-0.2-1-0.5-1.5-0.7c-0.6-0.3-0.8-0.4-1-0.5s-0.1-0.1-0.1-0.3
		c0-0.1,0-0.1,0-0.2v-0.3c0-0.3,0-0.6,0-1c0.1-1.3,0.1-2.5,0.2-3.9c-0.1-4-0.1-10.2,0-16.8c0.2-6.7,0.4-13.8,0.4-19.9
		c0.5-1.9,0.2-10.2,0.8-10.8c0-4.3,0.1-8.8,0.1-13.4c0-4.6,0-9.2,0-14c0-9.4,0-19.2,0.2-29.1c0.2-19.6,0.7-39.6,1.4-58v0.5
		c-0.3-4.8-1.1-10.4-1.5-15.3c0.1-0.5,0.2-0.4,0.1,0.6c-0.2-6.8,0.2-13.1-0.5-19.8c0.1,0,0.1,0,0.3,1.2c-0.4-3.2-0.7-6.5-1.3-9.9
		c-0.5-3.4-1.4-7-2.9-10.5v-0.4c0,0-0.4-1.2-1-2.2c-0.5-1.1-1-2.2-1-2.2c0.2,0,0.6,0.1,1.5,2.5c-1.3-3.3-2.7-6.6-4.1-9.8
		c-0.7-1.6-1.4-3.2-2-4.8c-0.6-1.7-1.4-3.3-2.2-4.9c-3.2-6.5-7.2-12.6-12.1-17.9c-1.3-1.4-2.7-2.5-4-3.8l-2-1.7l-0.5-0.4l-0.2-0.1
		l-0.2-0.1l-0.3-0.2l-0.2-0.1l0,0c0,0-0.1,0.1-0.1,0.2l-0.2,0.2c-0.4,0.4-0.6,0.2-0.3,0.3c0.1,0,0.2,0,0.3,0.1
		c0.1,0,0.2,0.1,0.3,0.2l0.2,0.1l0,0c0,0,0,0,0.1-0.1c0.1-0.2,0.2-0.3,0.3-0.4c0.1-0.1,0.2-0.2,0.2-0.2c0-0.1,0.1,0,0-0.2
		c0-0.1,0,0,0,0.1h0.1c0.3,0.2,0.7,0.3,1.1,0.5c0.3,0.2,0.6,0.4,1,0.6c0.1,0.1,0.3,0.2,0.4,0.3l0.2,0.2l0.2,0.2l2.7,2.5l5.3,5.2
		l0.6,0.6c0.2,0.2,0.3,0.2,0.4,0.4c0.1,0.1,0.3,0.2,0.5,0.4l0.3,0.2c0.1,0.1,0.1,0,0.1-0.1v-0.2l-0.2-3.3l-0.2-1.4v-0.3
		c0-0.1,0-0.2-0.1-0.4l-0.3-1.1l-1.3-4.3l-1.8-6c-0.1-0.3-0.2-0.5-0.3-0.7l-0.3-0.5l-0.5-0.8l-1.2-1.8c-0.7-1.2-1.5-2.3-2.2-3.5
		c-1.5-2.3-2.9-4.8-4.1-7.2c-1.4-2.4-2.5-5-3.8-7.4c-0.6-1.3-1.2-2.5-1.7-3.8c-0.5-1.3-1.2-2.7-1.8-3.9l-2-3.7
		c-0.7-1.3-1.5-2.5-2.2-3.7c-1.7-2.4-3.6-4.7-5.9-6.5c-1.2-1-2.3-1.8-3.6-2.5c-1.2-0.7-2.3-1.5-3.5-2.3l-6.9-5l0.4,0.8v-0.6l-0.5,1
		c0.7-0.4,1.5-0.5,2.2-0.5c0.2,0,0.4,0,0.6,0.1c0.1,0,0.2,0,0.3,0.1h0.1l0.3,0.1c0.6,0.2,1.4,0.6,2.1,1l7,3.6l0.8,0.4l0.4,0.2
		l0.2,0.1c0.1,0,0.2,0.1,0.1,0l-1.1-1.6l-2.1-3l-4.7-6.7c-0.1-0.1-0.1-0.2-0.1-0.3c0,0.1,0.1,0.2,0.2,0.3l0.1,0.2l0.3,0.4l0.7,1
		l-1.2-1.6c-0.1-0.1-0.1-0.2-0.1-0.4v-0.2c0-0.1,0-0.3,0-0.5l-1.4,1.2c1,0.1,1.2,0,1.5,0.2l0.2,0.2l0.3,0.2c0.2,0.1,0.4,0.3,0.5,0.4
		c0.3,0.3,0.6,0.6,1,1l1.8,2.5c-0.1,0-0.4-0.4-0.8-0.8c1.4,2.1,2.8,4.2,4.1,6.4l2.9,4.1l0.8,1.2c0.3,0.4,0.5,1,0.8,1.3l1.6,2.2
		l0.2,0.3c0.1,0.1,0.1,0.2,0.2,0.2h0.2h0.3c0.1-0.3,0.2-0.7,0.2-1l0.1-0.8l0.2-1.9c0.1-0.7,0-1.8-0.1-2.8c-0.1-1.7-0.2-3.3-0.3-5
		l-0.1-1.8c0-0.2,0-0.3,0.1-0.5s0.3-0.5,0.4-1l-1.6,0.4c0.8,0.6,1.4,1.4,1.7,2.3c0.3,1,0.5,2.1,0.7,3.2c0.4,2.2,1,4.5,1.4,6.7
		c-0.1,0-0.7-2.1-0.4-0.1c0.6,2.5,1.2,4.9,1.6,7c0.2,1.1,0.4,2.1,0.5,3.1c0.2,1,0.3,2,0.7,3c0.1,0.2,0.2,0.5,0.3,0.7
		c0.1,0.2,0.2,0.4,0.3,0.5c0.2,0.4,0.4,0.7,0.6,1.1c0.2,0.4,0.4,0.7,0.6,1.2c0.3,0.5,0.6,1.1,1,1.6c0.6,1.1,1.3,2,1.8,2.9
		c0.3,0.4,0.5,0.7,0.8,1.1c0.2,0.3,0.5,0.6,0.6,0.7c0.3,0.5,0.6,1.5,0,0.8l1.8,2.3l0.2,0.3l0.1,0.1c0,0,0,0,0.1,0l0.2,0.1l0.2,0.1
		c0,0,0.1,0.1,0.1,0c0.1-0.1,0.1-0.2,0.1-0.3c0.1-0.6,0.1-1.2,0.1-1.9c0-0.7,0.2-1.4,0.1-2.8c-0.2-1.6-0.5-3.3-0.6-4.8
		c-0.1-0.7-0.1-1.5-0.1-2.2c0-0.5,0-1,0-1.4c0-0.8,0.1-1.8,0.3-2.7c0.1-0.7,0.5-1.6,0.8-2.7l-1.1,0.8c0.2,0,0.4,0,0.7,0l-1.1-0.7
		c0.3,0.7,0.6,1.3,0.7,1.9c0.1,0.3,0.2,0.5,0.2,0.7l0.1,1l0.6,4c0.4,2.7,0.8,5.4,1.3,8.2c0.4,2.7,0.6,5.5,1.4,8.3
		c0.3,1.4,0.8,2.8,1.5,4.1l1.8,3.7c2.3,5,4.8,10,7.1,15c2.3,5,4.8,10,6.9,15c1.5,3,3,6.2,4.1,9.3c0.6,1.6,1.2,3.3,1.7,4.9l0.4,1.3
		c0.1,0.4,0.3,1,0.4,1.4c0.2,0.4,0.3,0.8,0.6,1.4c0.3,0.5,0.8,0.7,1.1,1.1l0.5,0.5l0.4-0.5c0.2-0.2,1.1-0.7,1.2-1.4
		c0.4-1.2,1-2.1,1.1-3.5c0-0.3,0-0.6,0-1v-0.8v-1.7c0-2.3,0-4.7,0-7c0-2.3,0-4.7-0.2-7c-0.1-2.3-0.3-4.7-0.5-7
		c-0.8-9.3-2.1-18.6-3.6-27.5l0.2,0.1c-0.5-3.6-1.3-7.2-2.2-10.8c-1-3.6-2.3-7.1-3.7-10.5c-3-6.9-5.6-13.8-8.5-20.8
		c-0.6-1.7-1.4-3.5-2.1-5.2l-1.1-2.5c-0.2-0.4-0.3-0.8-0.2-1.3c0.1-0.4,0.4-0.7,0.7-1c0.3-0.2,0.7-0.5,1.2-0.5
		c0.4,0,0.8,0.3,1.1,0.6c0.5,0.7,1.1,1.4,1.5,2.1c0.2,0.3,0.4,0.7,0.6,1.1c0.2,0.4,0.4,0.8,0.6,1.3l1.2,2.7l4.8,10.4l2.7,5.8
		l2.8,5.9l0.3,0.4c0.1,0.1,0.2,0.4,0.2,0l0.1-0.4c0-0.1,0-0.2,0-0.4v-0.7v-3.3c0-2.3-0.1-4.9-0.2-7.2c-0.1-6.7-0.1-12.3,0.1-17.9
		c0.1-2.8,0.3-5.6,0.5-8.5c0.1-1.5,0.4-2.9,0.8-4.3c0.5-1.4,1-3.3,2.5-2.7c0.2,0.3,0.4,0.6,0.6,1c0.2,0.4,0.5,0.7,0.8,1.2l-0.1,0.4
		c0.4,0.6,0.5,1.3,0.7,2c0.2,0.7,0.3,1.5,0.4,2.2s0.1,1.5,0,2.2c0,0.7,0,1.6-0.1,2.3c-0.1,3.1-0.3,6.3-0.4,9.3
		c-0.2,3.2-0.4,6.4-0.6,9.5s-0.4,6.4-0.2,9.6c0.2,3.2,0.5,6.5,1,9.6l0.6,4.8l0.7,5.1l0.2,1.5l0.2,1.5l0.5,2.9l0.2,1.4v0.2l0,0l0,0
		v-0.1l0.2-0.3l0.3-0.6c0.4-0.8,1-1.7,1.4-2.5c0.4-0.8,0.8-1.8,1.3-2.7c0.4-0.8,0.7-1.8,1.1-2.5c0.5-1.5,1.1-3,1.6-4.6
		c0,0-0.1,0.4-0.1,0.8l-0.1,0.8c0.4-1.9,1.7-5.5,2.7-8.6c0.8-3.1,1.5-5.4,0.7-4.9c0,0,0.3-1.1,0.6-2.1s0.5-2.2,0.5-2.2
		c0.2-3.1-0.2-5.9-1.2-8.6c-0.5-1.3-1.2-2.5-1.7-3.9c-0.2-0.6-0.5-1.4-0.7-2c-0.2-0.7-0.5-1.5-0.6-2.3c-0.4-1.5-0.7-3-0.8-4.2
		c0-0.3,0-0.7,0.2-1c0.2-0.3,0.6-0.4,1-0.3c0.7,0.1,1.4,0.6,1.9,1.1c0.3,0.2,0.5,0.5,0.7,0.8l0.5,1c0.3,0.6,0.7,1.4,1.1,2
		c0.7,1.4,1.5,2.8,2.2,4.3c0.1,0.2,0.2,0.5,0.3,0.6c0.1-0.2,0.1-0.5,0.2-0.7c0.1-0.5,0.2-1.1,0.2-1.6c0.1-1.1,0.2-2.2,0.4-3.4
		c0.2-1.1,0.3-2.2,0.5-3.4c0.1-0.5,0.2-1.2,0.2-1.7c0-0.3,0.2-0.5,0.4-0.7c0.2-0.2,0.4-0.3,0.6-0.5l0,0c1.2,0.7,1.4,2.2,1.4,3.6
		l-0.3-1.4c0.3,1.4,0,2.9-0.1,4.2c-0.2,1.5-0.3,3-0.5,4.3s-0.3,2.8-0.5,4c-0.2,1.2-0.5,2.3-0.7,3.5c0.1-0.6-0.1-0.2,0.1-1.5
		c-0.4,1.8-0.8,3.7-1.3,5.6l-0.3,1.5l-0.1,0.4v0.2l0,0l0,0l0.1-0.1l0.4-0.5c0.6-0.6,1.2-1.4,1.8-2c1.2-1.4,2.4-3.1,3.8-4.7
		c0.7-0.8,1.3-1.4,1.8-2l0.4-0.4c0.1-0.1,0.2-0.2,0.4-0.3c0.1-0.1,0.3-0.1,0.4-0.1c0.2,0,0.4-0.1,0.6-0.1l-0.7-0.4
		c0.1,0.7,0.3,1.1,0.1,1.5c-0.2,0.6-0.4,1.3-0.6,1.9c-0.2,0.6-0.6,1.2-1,1.8c-0.7,1.2-1.4,2.4-2.1,3.6c-1.4,2.4-2.9,4.9-4.2,7.3
		c-1.4,2.4-3,4.9-3.9,7.5c-0.5,1.4-0.7,2.8-1.1,4.1c-0.3,1.4-0.6,2.8-1,4l0.1-2.1c-0.7,4.3-2.7,10.4-4.5,16.9
		c-0.8,3.2-1.5,6.7-1.3,10.1c0.1,1.7,0.5,3.3,0.8,4.9s0.6,3.1,1,4.5l-0.3-0.6l1.5,5.7l-0.3,0.2c0.8,3.6,1.6,7.1,2.4,10.6
		c0.4,1.7,0.7,3.5,1.4,5.2s1.4,3.3,2.1,4.9c0.1,0.3,0.4,0.6,0.7,0.8c0.3,0.2,0.5,0.4,0.7,0.5l0.3,0.3l0.3-0.3
		c0.2-0.2,0.4-0.4,0.6-0.6c0.2-0.2,0.4-0.5,0.5-0.8c0.5-1.6,1.1-3.1,1.6-4.7c0.5-1.6,1-3.1,1.4-4.7
		C461.8,400.6,462.5,397.5,463.3,394.3"/>
</g>
<g id="Change3_1_">
	<path fill="#E97926" d="M281.8,561.7c0,0-53-33.8-53.3-82.2c-0.2-48.4,17.9-175.2,37-218.4c19.9-45.4,33.5-53.1,59.9-46.8
		c52.7,12.6,89.4,240.2,56.2,301.6C348.5,577.2,281.8,561.7,281.8,561.7"/>
</g>
<g id="Change5">
	<path fill="#4F3D16" d="M303.9,661.8c0,0,0.4,6.2,5.1,4.6s9-0.3,9-0.3l0.8-406c0,0-2-5.2-5.8-6.9s-3.6,3.4-3.6,3.4s0.3,23.9,0,42.8
		c-0.4,21.4-3.9,38.6-3.2,46c0.6,5.7,0.5,118.6-2.4,125.3S303.9,661.8,303.9,661.8"/>
	<path fill="#4F3D16" d="M310.2,534.1c0,0-31.6-33.8-36.8-37c-5.6-3.5-33.6-33.9-33.6-33.9l0.6,9l5.2,5.8c0,0,47,41.5,45.9,43.5
		c-1.1,2-51.2-30.4-51.2-30.4l-0.8,3.5l68.8,47.7L310.2,534.1z"/>
	<path fill="#4F3D16" d="M312.5,365.4c0,0-8.1-14.6-13.7-28.4c-1.9-4.6-3.3-20.7-4.7-23.8c-1.2-2.5-1.4-1-1.9-1.5
		c-1.4-1.2,3.6,19.3,0,17c-6.5-4.2-21.7-25.9-21.7-25.9l-1.7,3.7c0,0,4,6.8,7.6,10.9c3.6,4,24.3,32,23.2,33.4
		c-1.6,2-32.7-27.3-32.7-27.3l-1.2,2.4c0,0,6.8,5,5,6.6c-1.8,1.6-10.9-4.6-10.9-4.6l-1.3,1.9c0,0,20.1,9.9,23.3,12.2
		c3.2,2.3,28.1,28.9,28.1,28.9L312.5,365.4z"/>
	<path fill="#4F3D16" d="M311.1,482c0,0,26.5-40.2,31.2-44c5.2-4.2,28.7-38.1,28.7-38.1l0.6,9l-4.3,6.5c0,0-40.9,47.4-39.7,49.3
		c1.3,1.9,46.7-37,46.7-37l1.4,3.3l-31.1,26.5l26.9-13.9l2.9,2.8l-43.1,27.5l-19,20.5L311.1,482z"/>
	<path fill="#4F3D16" d="M311.4,525.4c0,0,30.9-34.6,35.9-37.9c5.6-3.6,32.9-34.7,32.9-34.7l-0.4,9l-5,5.9c0,0-46,42.5-44.9,44.5
		c1.1,2,50.5-31.6,50.5-31.6l1,3.5l-67.7,49.3L311.4,525.4z"/>
	<path fill="#4F3D16" d="M310.5,425.2c0,0,28.6-36.5,33.5-40.1c5.3-3.9,30.5-36.6,30.5-36.6l0.1,9l-4.7,6.3c0,0-43.3,45.4-42,47.3
		c1.2,1.9,48.5-34.8,48.5-34.8l1.2,3.4l-47.5,39.4c0,0,2.5,1.1,7.7,0c5.2-1.1,17-8.3,17-8.3l-1.1,4.3c0,0-8.9,6.3-15.9,8.1
		s-16.4,3.2-16.4,3.2l-8.2,6.8L310.5,425.2z"/>
	<path fill="#4F3D16" d="M310.2,453.6c0,0-26.6-38-31.3-41.8c-5.1-4.2-28.5-38.3-28.5-38.3l-0.6,9l4.2,6.5c0,0,40.7,47.6,39.3,49.5
		c-1.3,1.9-46.4-37.3-46.4-37.3l-1.4,3.3l45.4,42c0,0-2.5,1-7.7-0.4c-5.1-1.4-16.4-9.1-16.4-9.1l0.8,4.3c0,0,8.6,6.7,15.4,8.9
		c6.9,2.2,16.2,4,16.2,4l7.7,7.2L310.2,453.6z"/>
	<path fill="#4F3D16" d="M313,342.6c0,0,15.8-31.9,18.9-35.3c3.3-3.7,17.2-32.3,17.2-32.3l1.3,7l-2.5,5.4c0,0-25.1,40.6-24,42
		c1.2,1.4,30.2-32.9,30.2-32.9l1.3,2.5l-29.1,36.5c0,0,2,0.5,5.5-1c3.5-1.5,11.1-8.5,11.1-8.5l-0.2,3.5c0,0-5.6,5.9-10.4,8.2
		c-4.8,2.2-11.5,4.5-11.5,4.5l-5,6.3L313,342.6z"/>
	<path fill="#4F3D16" d="M309.4,310.3c0,0-8.5-25.4-10.4-28.2c-2.1-3.1-9.5-25.9-9.5-25.9l-1.7,5.1l1.4,4.2c0,0,14.6,32.9,13.6,33.7
		c-1,1-19.2-27.6-19.2-27.6l-1.3,1.7l17.9,30.2c0,0-1.5,0.2-4-1.3c-2.5-1.5-7.4-7.4-7.4-7.4l-0.2,2.7c0,0,3.6,5,6.9,7.1
		c3.3,2.1,8.1,4.5,8.1,4.5l6.7,13.1L309.4,310.3z"/>
	<path fill="#4F3D16" d="M306.2,502.7c0,0-1.8-0.7-5.2-4.1c-3.4-3.5-3.3-8.2-6.7-11.1c-4.2-3.7-10.1-11.5-14.8-12.8
		c-4.8-1.4-28-10.1-28-10.1s-2.7-6.5,1.1-4.9c3.7,1.6,7.5,1.1,7.5,1.1s-11.5-7.8-15.2-9.6c-3.7-1.8-5.3-11.2-5.3-11.2
		s10.4,8.6,12.4,9.5c2,1,5.6,2.4,8,3.6c2.3,1.2-8.9-15.2-8.9-15.2s3.1-4,5.5-0.3c2.4,3.7,5.1,10.8,8.3,15.2
		c3.2,4.3,13.9,13.5,20,17.4s11.1,6.4,15,11c3.8,4.7,8.4,11.6,8.4,11.6l1.9,11.9"/>
	<path fill="#4F3D16" d="M316,396c0,0,1.4-0.8,3.7-4.2c2.4-3.4,1.8-7.6,4.2-10.6c3.1-3.7,6.9-11.2,10.6-12.9
		c3.7-1.7,21.5-11.9,21.5-11.9s1.4-6-1.4-4.2s-5.9,1.8-5.9,1.8s8.4-8.2,11.2-10.1c2.8-1.9,3.1-10.5,3.1-10.5s-7.4,8.7-9,9.8
		c-1.5,1.1-4.3,2.8-6,4c-1.8,1.3,5.6-14.3,5.6-14.3s-2.9-3.3-4.5,0.3c-1.6,3.6-3,10.1-5.1,14.3c-2.1,4.2-9.8,13.4-14.3,17.5
		c-4.6,4.1-8.4,6.8-10.9,11.3c-2.5,4.6-5.5,11.1-5.5,11.1l-0.3,10.7"/>
	<path fill="#4F3D16" d="M305.8,432.4c0,0,3.6-0.1,1.5-4.6c-2.1-4.5,0,0-2.3-3.9c-2.9-4.9-8.5-15-15.5-24.7
		c-3-4.1-23.8-21.2-23.8-21.2s-0.4-7.1,2.5-4.3s11.7,8.6,11.7,8.6s-16.2-19.2-19.2-22.1c-3-2.9,1.8-7.3,1.8-7.3s6.9,9.2,8.5,10.8
		s5.4,6.9,7.2,8.8c1.9,1.9-4.3-20.1-4.3-20.1s4.2-2.9,5.4,1.5c1.2,4.5,1.4,12,3,17.2c1.6,5.2,8.9,17.4,13.6,23.2
		c4.7,5.7,8.7,9.6,10.8,15.4c2.1,5.7,4.3,13.8,4.3,13.8l-2,12"/>
	<path fill="#4F3D16" d="M170.8,642.3c0,0,2.9-25.3,3.8-51.9c1-26.5-3.1-126.5-4.7-144.4c-2.9-33.9-10-53.9-14.5-68.7
		c-5-16.5-7.3-26.4-10.7-36.8c-8.8-27.3-28.3-55.4-22-59.5s11.3,3.9,13.6,16.4c2.2,12.4,10.4,29.6,10.4,29.6s-4.9-36.5-0.3-38.9
		c4.6-2.4,5.1,5.5,4.7,17c-0.4,11.5,8.5,56.7,14.2,69.3c5.7,12.6,16.9-82.8,17.3-95.6c0.4-12.9-6.5-43.5,0.7-46.1
		c6.7-2.4,5.5,54.2,5.5,54.2s13.5-38.9,17-37.1c3.5,1.9,2.2-1.5,1.1,5.5c-1.2,7-15.2,39.7-16.1,48.5c-1.6,14.5-6.5,61.4-3.3,72.1
		c3.2,10.7,4.3-1.6,7.2-10.2c4.5-13.6,20.6-49.2,21.5-53.9c0.7-3.6,4.8-25.4,6.9-13c2,12.4-10,42.2-10,42.2s10.6-16.5,14-12.9
		c3.4,3.7,0,0-10.5,15.4c-8.5,12.4-14.3,17.8-17.3,38.4c-1.3,8.3-9.4,8.8-7.6,49.4c0.8,20.8,5.4,138.9,8.2,158.4
		c2.9,19.5,4.1,55.7,3.2,58.3C202.1,650.7,169.9,664.5,170.8,642.3"/>
</g>
<g id="Change1">
	<path fill="#000000" d="M272.6,383.1l1.5,1c-2-1.6-4-3.3-6-5c-1-0.8-2.1-1.6-2.7-2.7c-0.6-1.1-0.4-2.4-0.1-3.6
		c0.1-0.2,0.2-0.5,0.4-0.7c0.2-0.2,0.5-0.2,0.7-0.2c0.3,0.1,0.5,0.2,0.7,0.4l0.8,0.6c1.2,0.8,2.3,1.7,3.5,2.5s2.3,1.7,3.5,2.5
		l1.8,1.3c0.3,0.2,0.6,0.4,0.8,0.6c0.3,0.2,0.6,0.3,1,0.5h0.1c0,0,0-0.1-0.1-0.1l-0.1-0.2c-0.1-0.1-0.2-0.3-0.3-0.4l-0.6-0.7
		l-1.3-1.5c-0.8-1.1-1.6-2-2.8-3.2c-1.9-2.2-3.8-4.5-5.7-6.7c-1.8-2.1-3.6-4.1-5.3-6.3c-0.8-1.1-1.8-2.1-2.7-3.1
		c-0.3-0.5-0.6-1.2-0.7-1.8c-0.1-0.6,0-1.3,0.2-1.9c0.2-0.6,0.5-1.2,1-1.7c0.4-0.5,0.7-0.8,1.2-1.3c0.2,0.1,0.3,0.4,0.5,0.6l0.5,0.7
		l1.3,1.6c1.7,2.1,3.4,4.2,5.2,6.4c1.7,2.1,3.4,4.2,5.2,6.4l1.5,1.8c0.2,0.3,0.4,0.5,0.6,0.7l0.6,0.6c0.2,0.2,0.4,0.5,0.6,0.6
		c0.1-0.1,0.4-0.1,0.4-0.2v-0.4c0-0.5,0-1.3-0.2-2c0,0,0,0.1,0.1,0.4c0,0.2,0.1,0.5,0.1,0.8c0,0.5,0,1.1,0,1.1
		c0.2-1.5-0.6-4.2-1.1-6c-0.4-1.8-1-3.7-1.4-5.5c-0.4-1.8-1-3.7-1.4-5.5c-0.2-0.8-0.5-1.9-0.5-2.7c0-0.4,0.2-0.7,0.6-0.8
		c0.3-0.1,0.8-0.2,1.3-0.2c0.8-0.1,1.7,0.2,2.2,0.8c0.4,0.6,0.5,1.7,0.7,2.5c0.4,1.8,0.7,3.7,1,5.5c0.3,3.7,1.2,7.4,2.3,11
		c2.3,7.1,6.4,13.6,10.7,19.4c2.2,3,4.5,5.8,6.8,8.7c1.2,1.5,2.2,2.9,3.3,4.3l0.8,1.2l1,1.3c0.6,0.8,1.2,1.7,1.8,2.7
		c0.1,0.2,0.1-0.1,0.1-0.3v-0.5l0.1-1.1c0.1-0.7,0.1-1.4,0.1-2v-3.8c0-2.4,0-4.9,0-7.3c0-4.9,0-9.6,0-14.5v-7.2c0-1.2,0-2.4,0-3.6
		c-0.1-0.6-0.4-1.2-0.8-1.7l-1.3-1.3c-3.3-3.5-6.7-7-10.1-10.5c-3.4-3.5-6.7-7-10.2-10.4c-1.8-1.7-3.6-3.2-5.7-4.6
		c-2-1.3-4.3-2.1-6.5-3.3c-2.1-1.2-4.3-2.2-6.5-3.4c-2.2-1.1-4.3-2.2-6.6-3.3l-1.7-0.8c0.1-0.2,0.3-0.5,0.4-0.7l0.5-0.8l0.3-0.4
		l0.1-0.1h0.1l0.2,0.1l0.8,0.5c0.5,0.3,1.1,0.6,1.6,0.8c2.2,1.1,4.5,2.1,6.7,3.2c0.4,0.2,1,0.1,1.4-0.1s0.3-0.8,0.2-1.3
		c-0.1-0.4-0.5-0.8-0.8-1.3s-0.7-0.7-1.1-1.2c-0.7-0.7-1.6-1.5-2.3-2.2c-0.2-0.2-0.4-0.4-0.4-0.7c-0.1-0.3,0-0.6,0.1-0.8
		c0.2-0.5,0.5-1,0.8-1.5l0.1-0.1l0.1,0.1c4.9,4.3,9.9,8.9,15,13.5c-1-0.8-1.3-1.1-2.3-1.9c2.9,2.7,6.5,5.2,9.8,8.1
		c0.8,0.7-1.1-0.7-2.1-1.6c1.6,1.4,3.3,2.9,5.2,4.5c1,0.7,1.9,1.6,2.9,2.4c0.5,0.4,1,0.8,1.5,1.3c0.5,0.4,1.1,0.8,1.7,1.2l0.7,0.3
		l0.3,0.2c0.1,0.1,0.2,0.2,0.3,0l0.3-0.3c0-0.1-0.1-0.2-0.2-0.3l-0.4-0.7c-0.5-1-1.1-1.9-1.7-2.9c-1.2-1.9-2.4-3.7-3.8-5.6
		c-2.5-3.7-5.2-7.4-7.7-10.8c-2.5-3.4-5-6.6-7-9.2c-2.1-2.7-3.9-4.9-5.1-6.6c-2.9-3.9-4.1-5.6-2.8-3.3c-0.8-1.4-1.8-2.7-2.8-4.1
		c-0.3-0.4-0.5-1.2-0.3-1.7c0.1-0.3,0.2-0.5,0.3-0.8c0.1-0.3,0.3-0.6,0.4-1c0.3-0.6,0.6-1.4,1-2.1c1.8,2.3,3.6,4.7,5.4,7.1
		c1.7,2.2,3.3,4.3,5.1,6.5c3.4,4.3,7.4,8.3,11.5,12.5c0.2,0.3,0.7,0.3,1.4,0.5l-0.6,0.3c0.2-0.6,0.5-1.1,0.5-1.4
		c-0.2-2.4-0.3-5-0.6-7.5s-0.7-5.1-1.1-7.7v-0.3l0.3-0.2c0.5-0.3,1.2-0.4,1.7-0.2c0.5,0.2,1,0.7,1.2,1.3c0.2,0.4,0.4,0.8,0.5,1.4
		s0.2,1,0.3,1.4c0.3,1.8,0.6,3.6,1,5.5c0.3,1.8,0.6,3.6,1,5.5c0.3,1.8,0.5,3.7,1,5.5c0.3,1.8,0.7,3.6,1.4,5.3
		c0.6,1.7,1.5,3.4,2.2,5.1c1.6,3.4,3.2,6.8,4.8,10.3c0.1,0.2,0.4,0.6,0.7,1l-1.1,0.3c0-1.4-0.1-2.8-0.2-4.1
		c-0.1-1.4-0.1-2.9-0.1-4.2c0-2.9,0.1-5.6,0.2-8.5c0.2-2.9,0.4-5.6,0.7-8.5c0.2-1.4,0.3-2.8,0.5-4.2c0.2-1.4,0.3-2.8,0.2-4
		c-0.1-1.4-0.4-2.7-1-3.8c-0.2-0.6-0.5-1.2-1-1.8l-0.3-0.4c-0.1-0.2-0.2-0.3-0.3-0.5c-0.2-0.3-0.3-0.6-0.5-1c-0.3-0.6-0.5-1.2-1-1.7
		c-0.4-0.5-0.8-1.1-1.3-1.4c-0.4-0.3-1.2-0.6-1.7-1c-0.6-0.3-1.3-0.6-1.9-1.1c-2.4-1.4-4.9-3-7-5c-1.1-1-2-2-2.9-3.3
		c-0.4-0.6-0.8-1.4-1.1-2.2c-0.2-0.8,0-1.8,0.3-2.5l0.4-1.3l1,1c1.5,1.6,2.9,3.3,4.5,4.8c0.7,0.7,1.5,1.5,2.3,2
		c0.2,0.1,0.3,0.2,0.4,0.2l0.3,0.1l0.6,0.2l0.4,0.1h0.1v-0.1c0-0.1,0.1-0.1,0-0.2l-0.4-0.7c-0.5-0.8-1-1.6-1.5-2.4
		c-1.6-2.8-1.7-3.3-1.2-2.5c-2.4-4-5-8.1-7.4-12.2c-1.3-2-2.4-4.1-3.7-6.2l-1.9-3.1l-0.6-1l-0.3-0.6c-0.1-0.1,0-0.2,0.1-0.3l0.2-0.3
		l0.6-1.1l0.6-0.7l0.7-0.8l0.6,1c3.1,4.5,6,9.1,9,13.6l2.3,3.4l1.2,1.7l1.1,1.5c0.5,0.7,1.2,1.5,1.7,2.2l0.2,0.2l0.1,0.1v-0.1
		c0-0.2-0.1-0.4-0.1-0.5c-0.1-0.4-0.2-0.7-0.4-1.1l-1.6-3.6c-1.8-4.1-3.5-8.4-5.3-12.5l-2.7-6.3l-1.3-3.2c-0.4-1.1-0.8-2.2-1.2-3.4
		c-0.1-0.3-0.1-0.6-0.2-1c0-0.3-0.1-0.8-0.1-1.3c0-1,0.1-1.8,0.3-2.5c0.2-0.7,0.5-1.4,0.8-1.9l0.5-1l0.3-0.5l0.1-0.1
		c0,0,0.1-0.1,0.1,0l0.1,0.2l1,1.5l0.2,0.4c0.1,0.2,0.2,0.4,0.2,0.6l0.5,1.3l1.5,3.9l5,12.6c1.6,4.2,3.4,8.4,4.9,12.7
		c1.6,4.2,3.1,8.5,4.7,12.7l1.1,3l0.1,0.3c0,0.1,0.1,0,0.1,0c0.1,0,0-0.1,0.1-0.1v-0.6v-1.4c-0.1-0.5-0.1,0-0.2,0.2
		c0,0.2-0.1,0.1-0.2-0.6v0.5v0.2c-0.1,0.1-0.1-0.1-0.1-0.1l-0.2-0.4c-0.1-0.3-0.2-0.5-0.3-0.8c-1.5-3.9-3-7.8-4.3-11.7
		c-0.7-1.9-1.4-3.8-2.1-5.7l-2.2-5.6c-1.5-3.7-3-7.5-4.5-11.3l1,1.9c-2.1-5.6-2.4-6.2-2.9-6.7c-0.1-0.1-0.2-0.3-0.3-0.5
		c-0.1-0.1-0.1-0.2-0.2-0.4c-0.1-0.2-0.2-0.5-0.4-0.8c-0.2-0.4-0.3-0.8-0.5-1.5c-0.1-0.3-0.2-0.6-0.3-1c-0.1-0.3-0.3-0.7-0.4-1
		c-0.3-0.4-0.6-0.8-1-1.5c-0.1-0.1-0.2-0.3-0.3-0.4c0-0.1-0.1,0-0.2,0.1l-0.2,0.3c-0.2,0.4-0.5,0.7-0.7,1.2c-0.7,1.3-1,2-1.1,2.2
		c-0.1,0.2,0-0.2,0.1-0.6c0.1-0.2,0.1-0.4,0.2-0.6c0.1-0.2,0.2-0.4,0.2-0.5c0.1-0.2,0.1-0.2-0.2,0.5c-0.2,0.6-0.4,1.3-0.5,2
		c-0.1,0.4-0.1,0.7-0.1,1.2c0,0.4,0,0.8,0,1.2c0,0.4,0.1,0.6,0.1,1c0,0.2,0.1,0.5,0.2,0.7c0.1,0.5,0.2,1,0.4,1.5
		c0.6,1.9,1.5,3.5,2.1,5.3c1.5,3.4,2.9,6.9,4.3,10.3c1.5,3.4,2.9,6.9,4.3,10.3l0.4,0.8c0.1,0.1,0.1,0.3,0.1,0.4l0.1,0.2
		c0,0.1-0.1-0.1-0.1-0.1c-0.2-0.3-0.5-0.6-0.8-1.1c-0.7-1-1.4-1.9-2.1-3c-0.7-1.1-1.5-2.2-2.2-3.3c-3-4.3-5.8-8.7-8.7-12.9
		c-0.1-0.2-0.3-0.5-0.6-1.1l-0.7-1.2l-1,1.1c-0.2,0.2-0.3,0.3-0.5,0.5c-0.1,0.1-0.2,0.2-0.2,0.3c-0.1,0.1-0.2,0.3-0.3,0.4
		c-0.1,0.2-0.2,0.4-0.4,0.6l-0.2,0.3c-0.1,0.1-0.2,0.2-0.1,0.3c0.2,0.4,0.5,0.8,0.7,1.4c0.6,1.1,1.3,2.2,2,3.5
		c1.5,2.5,3.3,5.5,5,8.5c1.8,3,3.6,6,5.2,8.8c0.8,1.4,1.6,2.8,2.3,3.9c0.2,0.3,0.3,0.6,0.5,0.8c0.1,0.3,0.4,0.6,0.3,0.6
		c0,0.1,0,0.1,0,0.2s0.1,0.1,0.2,0.2c0,0.1-0.1,0-0.1,0c-0.1,0-0.2,0-0.3-0.1c0,0-0.1,0-0.1-0.1c-0.2-0.1-0.4-0.3-0.6-0.4
		c-0.8-0.6-1.7-1.5-2.4-2.2c-1.5-1.5-2.7-2.8-3.4-3.4l-0.5-0.6l-1.2-1.3l-0.6,1.6c-0.3,0.7-0.4,1.7-0.3,2.7c0.2,1,0.6,1.7,1.1,2.3
		c0.8,1.2,1.8,2.3,2.9,3.3c2.1,2,4.6,3.6,7,5c0.6,0.3,1.3,0.7,1.9,1.1s1.4,0.6,1.7,1c0.4,0.3,0.8,0.8,1.2,1.3c0.4,0.5,0.6,1,1,1.7
		c0.1,0.3,0.3,0.6,0.5,1c0.1,0.2,0.2,0.3,0.3,0.5l0.3,0.4c0.3,0.5,0.6,1.2,0.8,1.7c0.5,1.2,0.8,2.4,1,3.7c0.1,1.3,0,2.7-0.2,3.9
		c-0.2,1.4-0.4,2.8-0.5,4.2c-0.3,2.9-0.6,5.6-0.8,8.5c-0.2,2.9-0.3,5.7-0.3,8.6c0,1.4,0,2.9,0.1,4.2c0,1.4,0.2,2.9,0.2,4.2l2-0.6
		c-0.2-0.3-0.6-0.8-0.6-1c-1.6-3.4-3.1-6.8-4.7-10.1c-0.7-1.7-1.6-3.4-2.2-5c-0.6-1.7-1.1-3.4-1.4-5.2s-0.6-3.6-1-5.5l-1-5.5l-1-5.5
		l-0.1-0.7c0-0.2-0.1-0.5-0.2-0.8c-0.1-0.5-0.3-1-0.5-1.4c0-0.1-0.1-0.3-0.2-0.4c-0.1-0.2-0.2-0.3-0.3-0.5c-0.2-0.3-0.5-0.5-1-0.6
		c-0.7-0.3-1.6-0.1-2.2,0.2l-0.6,0.3l0.1,0.7c0.3,2.5,0.6,5.1,1.1,7.6c0.2,1.3,0.2,2.5,0.3,3.8l0.3,3.8c0,0.1-0.2,0.5-0.4,1.3
		l1.4-0.6c-0.3-0.1-0.6-0.2-0.8-0.3c-0.2-0.1-0.2-0.1-0.3-0.2c-3.8-3.9-7.7-7.8-11.1-12.2c-1.7-2.1-3.4-4.3-5.1-6.6
		c-2-2.7-4-5.3-6-8c-0.4,0.8-0.8,1.7-1.3,2.7l-0.6,1.3l-0.2,0.4l-0.2,0.5c-0.3,0.7,0,1.6,0.4,2.2c1.3,1.9,2.5,3.8,3.9,5.7
		c1.3,1.9,2.8,3.8,4.2,5.6c2.9,3.6,5.7,7.3,8.5,11c2.8,3.7,5.5,7.5,8.1,11.3l1.9,2.9l1.7,2.7c0.3,0.4,0.5,0.8,0.7,1.3l0.2,0.3
		c0,0.1,0.2,0.2,0,0.3c-0.1,0.1-0.2,0-0.3,0l-0.3-0.1c-0.3-0.1-0.6-0.4-0.8-0.6l-1.3-1.1l-4-3.3c-2.7-2.2-5.3-4.5-8.1-6.7
		c-5.2-4.7-10.3-9.3-15.5-14.1l-0.8-0.7l-0.5,1l-0.4,0.7c-0.1,0.2-0.3,0.5-0.4,0.8c-0.1,0.4-0.2,0.8-0.1,1.3
		c0.1,0.4,0.3,0.8,0.6,1.1c0.6,0.6,1.2,1.1,1.7,1.6c0.5,0.5,1.1,1.1,1.6,1.6c0.2,0.3,0.5,0.5,0.7,0.8c0.1,0.1,0.2,0.4,0.2,0.6
		c0,0.1,0,0.1,0,0.1l0,0c0.1,0,0.1,0,0.2,0c0.1,0,0.1,0.1,0.1,0.1c0.1,0-0.1,0-0.1-0.1l-0.1-0.1c-0.1-0.1,0-0.1,0-0.1l0,0
		c0,0-0.1,0-0.1,0.1c-0.1,0-0.3,0.1-0.4,0.1c-0.1,0-0.2,0-0.3,0c-2-1-3.9-1.9-5.9-2.9l-1.5-0.7c-0.1-0.1-0.2-0.1-0.3-0.2l-0.4-0.2
		l-1.1-0.6l-0.5-0.3c-0.2,0.2-0.3,0.4-0.4,0.6l-0.5,0.8l-0.8,1.3c-0.5,0.4,0.2,0.5,0.5,0.7c2.2,1.1,4.3,2.2,6.6,3.3
		c2.1,1.1,4.1,2.1,6.2,3.2c2,1.1,4.2,2.1,6.4,3.1c2,1.1,4,2.4,5.7,3.9c1.8,1.6,3.5,3.3,5.1,5c1.7,1.8,3.4,3.5,5.1,5.3
		c3.4,3.6,6.8,7.2,10.2,10.8l2.5,2.8c0.3,0.3,0.5,0.8,0.6,1.3c0,0.1,0,0.2,0,0.3v0.4v1c0,2.5,0,5,0,7.5c0,5.1,0,10.1-0.1,15.2
		c0,2.5,0,5.1,0,7.6v3.3c0,0.3,0,0.5,0,0.8v0.4v0.2c0,0.1,0,0.2-0.1,0.1l-0.6-0.8l-0.7-1.1c-1-1.3-1.9-2.5-2.9-3.8l-5.9-7.5
		c-0.2-0.3-0.1-0.2,0.1,0c-2.5-3.3-5.3-6.9-7.7-11.1c-2.4-4.2-4.6-8.9-5.7-14c-0.6-2.5-1-5.1-1.3-7.8c-0.2-1.4-0.4-2.7-0.6-4l-0.4-2
		c-0.1-0.6-0.4-1.5-1.1-2.1s-1.5-1-2.2-1c-0.4,0-0.7,0-1.1,0.1c-0.2,0-0.3,0.1-0.5,0.1c-0.2,0.1-0.4,0.1-0.6,0.2
		c-0.4,0.2-0.7,0.6-0.8,1.1c-0.1,0.4-0.1,1,0,1.3c0.1,0.7,0.3,1.3,0.4,2c0.6,2.5,1.3,5,1.8,7.4c0,0,0.3,1.1,0.6,2.5
		c0.2,0.7,0.4,1.5,0.6,2.4c0.1,0.5,0.4,1.2,0.5,1.9c0.1,0.3,0.1,0.7,0.2,1.1c0.1,0.1-0.1,0.1-0.1,0.2c-0.1,0-0.1,0.1-0.2,0l-0.3-0.3
		c-0.4-0.5-0.8-1-1.2-1.4c-0.8-1-1.4-1.6-1.4-1.6c-2.9-3.6-5.8-7.3-8.7-10.9l-2.2-2.8c-0.4-0.6-1-1.2-1.5-1.8
		c-0.5,0.4-1.1,1.1-1.6,1.6c-0.8,1-1.5,2.1-1.6,3.4c-0.1,0.6,0,1.4,0.3,1.9c0.2,0.6,0.5,1.2,1,1.7c3.1,3.5,6,7.1,9.1,10.6l3.2,3.7
		l1.4,1.6l0.6,0.7c0.1,0.1,0.2,0.2,0.3,0.4l0.1,0.2c0,0.1,0.1,0.2,0,0.1c-0.6-0.3-1.2-0.7-1.7-1.2l-1.6-1.3l-3.3-2.4
		c-0.5-0.4-1.4-0.8-2-0.6c-0.7,0.2-1.2,1-1.3,1.7c-0.2,0.6-0.3,1.2-0.3,1.8s0,1.3,0.2,1.9c0.4,1.3,1.4,2.1,2.2,2.9l2.5,2.1
		c3.4,2.9,6.7,5.7,10,8.6c1.6,1.5,3.3,3,4.9,4.5c1.6,1.5,3.2,3,4.5,4.7c1.4,1.7,2.5,3.5,3.8,5.3c1.2,1.8,2.3,3.7,3.5,5.6
		c2.2,3.8,4.6,7.5,6.8,11.3l1.7,2.9l0.4,0.7l0.2,0.3c0,0.1,0.1,0.2,0.1,0.2c0.1,0.4,0.2,0.8,0.1,1.4l-0.2,6.7l-0.2,6.7l-0.1,2.8v0.8
		c0,0.1,0,0.3,0,0.4v0.2v0.1c0,0,0,0-0.1-0.1l-0.8-1.1l-1.2-1.6l-3.1-4.3l-6.3-8.7c-4.1-5.8-8.6-11.5-13.4-16.9
		c-9.2-10.8-17.5-22.5-25.8-34.1l-1.6-2.2l-2.1-3c-0.3-0.5-0.7-1.1-1.2-1.6l-0.3-0.4l-0.1-0.2l-0.1-0.1l0,0c0,0,0,0,0,0.1l-0.1,1
		l-0.2,1.9l-0.1,2l-0.2,3.1l-0.1,1.4v0.6v0.3c0,0.1,0,0.3,0,0.4c0.1,0.6,0.3,1.1,0.6,1.6l0.8,1.1l1.6,2.1c2.1,2.9,4.2,5.7,6.5,8.6
		l6.8,8.3l13.5,16.6l6.8,8.3l3.4,4.1c0.6,0.8,0.8,1,1.1,1.4c0.2,0.3,0.5,0.7,0.7,1.1l0.4,0.6l0.2,0.3l0.1,0.1l-0.1,0.1l-0.1,0.1
		c-1-0.4-1.7-1.2-2.5-1.8l-4.7-3.7l-5-3.9c-1.7-1.4-3.4-2.7-5-4c-4.5-3.8-9-7.6-13.5-11.3c-2.2-1.9-4.5-3.8-6.7-5.6
		c-1.1-1-2.2-1.9-3.3-2.8l-1.7-1.4c-0.7-0.6-1.7-1.4-2.7-2c-0.3,0.7-0.6,1.4-1,2.1c-0.1,0.3-0.3,0.7-0.4,1c-0.1,0.3-0.2,0.4-0.2,0.8
		c-0.1,0.5,0.1,1.1,0.3,1.5c0.1,0.2,0.2,0.4,0.4,0.5c0.1,0.1,0.2,0.2,0.2,0.3l0.2,0.2l1.5,1.4l3,2.8c2,1.8,3.9,3.7,5.9,5.5
		c3.9,3.7,7.8,7.3,11.8,11c3.9,3.6,7.8,7.3,11.7,10.9c1.9,1.8,3.9,3.6,5.8,5.4l2.5,2.3c0.2,0.1,0.3,0.3,0.5,0.4
		c0.1,0.1,0.2,0.1,0.1,0.2c-0.1,0.1-0.2,0-0.3,0.1c-0.2,0-0.4,0.1-0.6,0l-1-0.2c-1.2-0.2-2.2-0.4-3.3-0.7c-1.1-0.3-2.1-0.6-3-1.1
		c-1-0.5-2-1.1-3-1.6c-1.9-1.1-3.9-2.2-5.8-3.5l-4-2.4l-2.2-1.3c-0.3-0.2-0.1,0.2-0.1,0.3l0.1,0.6l0.2,1.4c0.2,0.8,0.3,1.8,0.5,2.7
		c0.1,0.4,0.3,1,0.4,1.3c0.1,0.3,0.3,0.6,0.5,0.8c0.4,0.5,0.8,1.1,1.4,1.5l1.4,1.1c1.9,1.4,3.8,2.5,5.8,3.6c4,2.1,8.4,3.8,12.8,4.9
		c2.2,0.5,4.5,1.1,6.7,1.4c2,0.4,3.9,1.4,5.5,2.7c0.8,0.6,1.6,1.4,2.4,2.1l0.6,0.5l0.2,0.2c0,0,0,0.1,0.1,0.1
		c0.1,0.1,0.1,0.3,0.1,0.4c0,0.1,0,0.1,0,0.2v0.4l-0.7,6.7l-0.4,3.3l-0.2,3.4l-0.4,6.6l-0.1,0.8v0.1c0,0,0-0.1-0.1-0.1l-0.1-0.2
		c-0.1-0.1-0.2-0.2-0.3-0.3l-0.1-0.2l-0.4-0.5c-0.4-0.4-0.7-0.8-1.2-1.3c-0.8-0.8-1.6-1.6-2.5-2.3c-1.8-1.5-3.7-2.8-5.6-3.9
		c-1.9-1.1-3.8-2.2-5.6-3.5c-3.7-2.4-7.2-5.1-10.6-8c-1.7-1.4-3.4-2.9-5-4.3s-3.1-3.1-4.5-4.8c-1.4-1.7-2.5-3.5-3.5-5.5l-3.1-5.9
		l-1.6-3c-0.3-0.5-0.5-1-0.8-1.5c-0.3-0.5-0.7-1.2-1.4-1.6c-0.6-0.4-1.5-0.7-2.3-0.6c-0.8,0.1-1.5,0.4-2,0.7c-0.4,0.3-1.5,1-1.7,1.8
		c-0.1,0.4-0.1,1,0.1,1.4c0.2,0.4,0.4,0.8,0.5,1.1c2.3,3.5,4.6,7,6.9,10.6l0.2,0.4l0.1,0.2c0,0,0.1,0.1,0,0.1h-0.1
		c-0.3-0.1-0.7-0.2-1.1-0.3l-0.6-0.2l-0.7-0.3c-0.5-0.2-1-0.4-1.5-0.7c-1-0.5-1.9-1.1-2.9-1.6c-1.9-1.2-3.6-2.5-5.4-3.9l-2.7-2.1
		l-4.2-3.5l-0.1,0.2c0,0.1-0.1,0.1-0.1,0.3v0.8c0,0.5,0,1,0,1.5c0,1,0.2,2.2,0.5,3.3c0.1,0.3,0.2,0.4,0.2,0.6
		c0.1,0.2,0.1,0.4,0.2,0.5c0.1,0.3,0.3,0.7,0.5,1.1c0.3,0.7,0.7,1.4,1.2,2.1c0.8,1.4,1.9,2.7,3.3,3.6c1.3,0.8,2.7,1.7,3.9,2.5
		c2,1.3,4.1,2.7,6.2,3.9l0.8,0.5l0.2,0.1c0,0,0.1,0,0.1,0.1H254c-0.2,0-0.3,0.1-0.5,0.1c-0.6,0.1-1.4-0.1-2-0.3l-0.3-0.1l-0.2-0.1
		l-0.4-0.1c-0.5-0.1-1.2-0.2-1.7-0.1c-1.2,0.3-1.3,1.9-1.2,2.8c0.1,0.8,0.2,1.7,0.6,2.5c0.4,0.8,1.3,1.5,2,1.9
		c0.8,0.3,1.5,0.5,2.2,0.8l2.2,0.7c1.5,0.5,3,1.1,4.5,1.6c5.9,2.1,11.9,4.2,17.8,6.4c-0.2,0,0.8,0.4-2.4-0.7l2.3,0.8
		c0.7,0.3,1.5,0.5,2.1,1c1.4,0.7,2.5,1.7,3.8,2.8c2.4,2.1,4.7,4.2,6.9,6.6c1.1,1.2,2.2,2.2,3.2,3.4c1,1.1,1.7,2.4,2.3,3.8
		c1.2,2.9,2.5,5.9,5.1,8.1c0.2,0.2,0.3,0.6,0.4,1.1v1.7c0,1.2,0,2.2,0,3.3c0,2.2,0,4.5,0,6.7c0,2.2,0,4.5,0,6.6v3.2
		c0,0.5,0,1.2-0.1,1.7c-0.4-0.3-0.7-0.6-1.1-1.1l-1.8-1.8l-3.9-4.1c-2.7-2.8-5.2-5.5-8-8.3c-2.7-2.8-5.4-5.4-8.3-8s-5.8-5-8.6-7.6
		h0.1c-6.4-5.8-12.4-12-18.6-18.3c-3.1-3.2-6-6.4-9.1-9.5l-1.4-1.5c-0.5-0.5-1.1-1.1-1.5-1.4c-0.2-0.2-0.4-0.3-0.7-0.5
		c-0.1-0.1-0.3-0.1-0.4-0.2l-0.2-0.1c0,0.1,0,0.1,0,0.2l-0.1,1.7c0.2,2.4,0.3,4.9,0.5,7.4c0,0.5,0.4,1,0.6,1.3l0.8,0.8l1.6,1.6
		l3.3,3.2c2.2,2.1,4.3,4.3,6.6,6.4c4.5,4.1,9,8.3,13.5,12.5c4.5,4.1,9,8.4,13.5,12.5l6.8,6.3l0.8,0.7l0.5,0.5
		c0.3,0.4,0.7,0.7,1.1,1.2l1.1,1.2c0.2,0.2,0.3,0.4,0.4,0.6l0.2,0.3c-0.1,0-0.2-0.1-0.3-0.1c-0.4-0.2-0.8-0.3-1.3-0.5
		c-0.4-0.2-0.7-0.4-1.2-0.6l-2.5-1.5l-6.8-4c-4.6-2.7-9-5.4-13.6-8.1c-4.5-2.8-8.9-5.6-13.4-8.4c-2.2-1.4-4.5-2.8-6.6-4.1l-3.5-2.2
		l-1.2-0.6c-0.1,0-0.2-0.1-0.3-0.1l-0.1,0.3l-0.2,0.6l-1,2.2v1v0.4c0,0.1-0.1,0.3,0.1,0.4l0.8,0.4c0.3,0.1,0.3,0.2,0.5,0.3l2.2,1.6
		c1.5,1.1,3,2.1,4.6,3.2c3,2.1,6,4.1,9,6.3c6,4.1,12,8.3,17.8,12.4c5.9,4,11.8,8.2,17.6,12.2c2.9,2,5.8,4,8.7,5.9
		c0.7,0.5,1.5,1,2.1,1.5c0.3,0.2,0.5,0.6,0.6,1c0.1,0.2,0.1,0.4,0.1,0.5v0.6c0,1.7,0.1,3.5,0.1,5.2c0.2,20.1,0.3,40.7,0.5,62
		c0.1,10.6,0.2,21.4,0.3,32.4c0.1,5.5,0.1,11,0.2,16.6c0,2.8,0,5.6,0.4,8.5c0.1,0.7,0.3,1.5,0.6,2.1c0.3,0.6,1,1.3,1.7,1.5
		c1.5,0.5,3.1,0,4.2-0.3c2.1-0.1,4.2-0.2,6.4-0.3h1h0.4h0.2V668v-1.8V663c0-4.2,0-8.6,0-12.8c0-8.6,0-17.3,0.1-26
		c0-17.4,0.1-35,0.1-52.7c0-8.8,0-17.7,0-26.5v-13.3c0-0.5,0.1-1.1,0.4-1.5c0.3-0.4,0.7-0.7,1.2-1.1l2.7-1.9l5.3-3.9
		c14.3-10.4,28.5-20.8,42.5-31.1l-0.1,0.2c2.5-1.8,5-3.6,7.4-5.5c1.3-1,2.4-1.8,3.7-2.8c0.3-0.2,0.6-0.5,0.7-1
		c0.1-0.4,0-0.8-0.1-1.2c-0.3-0.7-0.4-1.6-0.7-2.3c-0.5,0.3-1.2,0.6-1.7,1.1l-1.6,1.1l-3.1,2.1c-2.1,1.4-4.1,2.8-6.3,4.1
		c-4.1,2.8-8.3,5.5-12.4,8.3l-3.1,2l-1.6,1.1l-1.6,1l-6.4,3.8l-6.4,3.8l-3,1.8l-1.5,0.8c-0.4,0.3-1,0.5-1.5,0.7l-0.5,0.2h-0.1v-0.1
		l0.1-0.3c0.1-0.4,0.3-0.7,0.5-1.1c0.5-0.6,1.1-1.2,1.6-1.7l1.6-1.7l1.7-1.8c1.2-1.3,2.4-2.4,3.6-3.6l3.7-3.5
		c5-4.8,10-9.4,14.8-14.1l14.8-14.1c2.4-2.3,5.1-4.7,6.8-7.7c0.8-1.5,1.4-3.3,1.4-5.1c0-0.4,0-0.8,0-1.4l-0.1-1.6
		c-0.1-0.5,0.1-1,0-1.4c0-0.2-0.1-0.5-0.1-0.7l-0.1-0.4c0-0.1,0,0-0.1,0h-0.1c-5.3,5.7-10.6,11.5-15.9,17.2
		c-2.5,2.8-5.1,5.5-7.7,8.4l-3.8,4.1c-1.3,1.4-2.8,2.5-4.1,3.8c-1.5,1.3-2.9,2.4-4.3,3.7c-1.4,1.3-2.8,2.8-4,4.1
		c-2.7,2.8-5.2,5.5-7.8,8.3c-2.7,2.8-5.2,5.5-7.8,8.4l-3.9,4.1l-1.7,1.8c-0.2,0.2-0.5,0.5-0.6,0.8l-0.1,0.2v0.1c0,0,0,0.1-0.1,0
		l-0.4-0.3l0,0c-0.1-0.8,0-1.7,0-2.7c0-1.2,0-2.4,0-3.7c0-2.4,0-4.9,0-7.4c0-3.5,0-7.1,0.1-10.7V489v-0.6c0-0.2,0-0.3,0.1-0.5
		c0.1-0.3,0.3-0.7,0.5-1.1l3.6-3.9c2.4-2.7,4.9-5.3,7.3-7.8c1.3-1.3,2.7-2.3,4.1-3.4l4.6-2.9c6-3.9,12.2-7.8,18.2-11.7
		c3.1-1.9,6.2-3.9,9.1-5.9l4.6-3l2.3-1.5l0.5-0.3l0.6-0.4l1.4-1l-1.1-1.1l-0.5-0.5l-0.4-0.4c-0.2-0.2-0.5-0.6-1-0.8
		c-0.4-0.2-1-0.1-1.4,0l-4.2,2.2c-2.8,1.5-5.6,3-8.4,4.3l-7.2,3.8l-3.5,1.8c0.2-0.6,0.8-1,1.3-1.4l1.5-1.3c4.5-3.9,9-7.7,13.5-11.7
		l7.2-6.3l3.6-3.1c0.3-0.3,0.6-0.5,0.8-0.8c0.2-0.3,0.4-0.7,0.4-1.2c-0.1-0.8-0.5-1.6-0.8-2.3c-0.1-0.1-0.1-0.2-0.2-0.3
		c-0.1-0.1-0.2-0.2-0.3-0.1l-0.6,0.4c-4,3.4-8.1,6.8-12,10.2l-5.9,5.1c-2,1.7-4,3.3-6,4.9c-4,3.3-8.2,6.5-12.2,9.8l-6.2,4.9
		c-0.5,0.4-1.1,0.8-1.6,1.2c-0.5,0.3-1.2,0.6-1.7,1l-0.4,0.2c-0.1,0-0.3,0.2-0.4,0l-0.2-0.2l-0.1-0.1V463l0.2-0.4l1-1.6
		c0.6-1.1,1.4-2,2.1-3l2.2-2.8c1.5-1.8,3-3.6,4.5-5.5c3-3.6,5.9-7.3,8.9-10.9c5.9-7.2,11.8-14.4,17.7-21.5c1.2-1.4,2.3-2.8,3.5-4.1
		c0.6-0.7,1.2-1.4,1.8-2.1s1.2-1.4,1.7-2.2c1.1-1.6,1.5-3.6,1.3-5.5c0-0.4-0.1-1-0.2-1.4c-0.1-0.4-0.1-1.1-0.1-1.6
		c0-1.1-0.1-2.1-0.1-3.2c0-0.5-0.2,0-0.3,0.1l-0.4,0.6l-1,1.3c-0.6,0.8-1.3,1.7-1.8,2.5c-1.2,1.6-2.3,3.2-3.5,4.8
		c-2.3,3.2-4.7,6.4-7,9.6c-2.3,3.3-4.7,6.5-7.1,9.8s-5.2,6.3-7.8,9.3c-1.4,1.6-2.7,3.1-3.9,4.8l-3.5,5.1c-2.3,3.4-4.7,6.8-7.1,10.1
		s-4.7,6.7-7,10.1l-1.8,2.7l-1,1.3l-0.2,0.3l-0.1,0.2l0,0l0,0v-0.1v-0.8c0-2.1,0-4.2,0-6.4c0-8.1-0.1-16-0.1-23.9c0-1.9,0-3.9,0-5.8
		c0-1,0-1.9,0-2.9c0-0.5,0-1,0-1.5s0.2-1,0.4-1.5c0.4-1,1.1-1.7,1.9-2.2c0.4-0.3,0.8-0.5,1.4-0.6c0.5-0.1,1-0.2,1.4-0.2
		c1.8-0.3,3.7-0.5,5.5-0.8c7.2-1.2,14.1-3.3,20-6.5c1.4-0.7,2.8-1.5,4-2.4c1.3-1,2-2.4,2.3-4c0.1-0.4,0.2-0.8,0.2-1.2
		c0-0.1,0,0-0.1,0L354,409l-0.3,0.1l-0.5,0.2l-2.2,1.1l-4.2,2.1l-4.2,2.1c-1.4,0.7-2.8,1.4-4.2,1.8c-1.5,0.4-3,0.7-4.6,0.7
		c-0.8,0-1.4,0-2.1,0c-0.3,0-0.6,0-1-0.1l-0.4-0.1c-0.1,0-0.4-0.1-0.2-0.2c8.4-6.9,16.8-13.8,25.1-20.7c4.2-3.5,8.5-7,12.7-10.5
		l6.4-5.2l1.6-1.3l0.7-0.6c0.2-0.2,0.5-0.4,0.8-0.7c0.3-0.3,0.4-0.8,0.4-1.3c0-0.4-0.3-0.8-0.4-1.2c-0.3-0.7-0.6-1.7-1-2.5
		c-0.7,0.5-1.4,1.1-2.1,1.6l-1.6,1.2l-3.2,2.4l-6.4,4.8c-4.2,3.2-8.5,6.4-12.7,9.5c-4.1,3.3-8.6,6.2-12.9,9.2l-5.8,4
		c-0.7,0.5-1.5,1.2-2.3,1.5L329,407l-0.1,0.1c0,0-0.1,0.1-0.1,0s-0.2-0.2-0.2-0.3l0.2-0.3l0.7-1.2c0.6-1,1.5-1.7,2.2-2.5l3.2-3.6
		l6.5-7.3l12.9-14.6c4.2-4.9,8.9-9.4,13.3-14.3c2.1-2.4,4.2-4.9,6-7.6c0.4-0.7,0.6-1.6,0.7-2.4c0.1-0.8,0-1.7,0-2.4v-1.2v-1.4v-2.7
		V345v-0.1c0,0,0,0-0.1,0l-0.1,0.1c-0.2,0.1-0.4,0.3-0.5,0.4l-0.8,1.1l-1.8,2.2l-3.3,4.1l-6.5,8.3c-4.3,5.5-8.8,10.9-13.5,16.2
		c-2.3,2.7-4.8,5.2-7.2,7.7c-2.4,2.5-4.8,5.2-7,7.8c-2.2,2.7-4.5,5.4-6.7,8.3l-3.3,4.1l-3.4,4.1l-2.1,2.7l-1.1,1.3
		c0-0.4,0-1.2,0-1.7v-6.4v-11.7v-1.5v-0.7c0-0.3,0.1-0.5,0.2-0.7c0.5-0.8,0.8-1.8,1.3-2.7l1.2-2.7c0.4-0.8,0.8-1.8,1.1-2.7
		c0.3-1,0.5-1.9,1-2.8c0.4-1,1.1-1.7,1.6-2.5c1.1-1.6,2.2-3.2,3.4-4.8c1.2-1.6,2.3-3.2,3.5-4.7c0.6-0.7,1.4-1.5,2.1-2
		c0.7-0.6,1.7-1.1,2.5-1.5l10.2-5.6l5.1-2.9l2.5-1.4c0.8-0.5,1.7-0.8,2.2-1.6c0.5-0.7,0.7-1.7,0.6-2.7c0-0.4,0-0.8-0.2-1.2
		c-0.2-0.4-0.7-0.2-1.2-0.1c-0.2,0.1-0.4,0.1-0.5,0.2l-0.6,0.3c-0.4,0.2-1,0.3-1.4,0.5l-2.8,1l-0.2,0.1l-0.1-0.2l-0.2-0.4l-0.1-0.1
		l0.1-0.1c0.1-0.2,0.3-0.5,0.5-0.7l0.6-0.5l1.3-1.1l2.4-2.2l4.9-4.5c1.7-1.4,2.7-3.4,3.3-5.4l0.2-0.7l0.2-0.7
		c0.1-0.4,0.2-0.8,0.2-1.4c0-0.4,0.1-0.8,0-1.4c0-0.2,0-0.4-0.1-0.6V331l-0.1,0.1l-0.2,0.2l-2.8,3.2c-1.1,1.3-2.2,2.4-3.4,3.6
		c-1.2,1.2-2.4,2.2-3.8,3.2c-0.6,0.4-1.5,1-2.3,1.5c-0.8,0.4-1.7,0.8-2.7,1.3V344v-0.2l0.1-0.3l0.2-0.6c0.1-0.4,0.2-0.8,0.4-1.3
		c0.1-0.4,0.3-0.8,0.5-1.3l0.5-1.2l1.9-4.3l1.9-4.3c0.1-0.3,0.2-0.6,0.2-1s-0.2-0.5-0.4-0.7c-0.5-0.3-1.3-0.6-1.9-0.5
		c-0.6,0.1-1.1,0.7-1.3,1.5c-0.3,0.7-0.5,1.5-0.8,2.2c-0.5,1.5-1,3-1.4,4.5c-0.8,3-1.9,5.9-3.4,8.8c-0.7,1.4-1.6,2.8-2.5,4
		c-1,1.3-2,2.4-3,3.6l-3,3.6c-1,1.2-2,2.4-3.1,3.5c-2.2,2.2-4.7,4.2-6.9,6.3c-1.2,1.1-2.3,2-3.4,3.2l-0.7,0.8
		c-0.3,0.3-0.6,0.7-1,1.2c-0.6,0.7-1.3,1.7-1.8,2.5l-0.2,0.1h-0.1l0,0l-0.1-0.3c-0.1-0.4-0.1-0.7-0.1-1.2c-0.1-0.7-0.1-1.5-0.1-2.4
		v-4.3c0-2.7,0-5.4,0-8.1s0-5.4,0-8.1v-4c0-1.3-0.1-2.8,0.5-4.1c1.5-2.7,4.5-3.4,6.9-4.2c2.5-1,5-2,7.3-3.2c2.3-1.3,4.6-2.8,6.6-4.5
		c0.5-0.4,1-0.8,1.5-1.4c0.4-0.4,1-1,1.3-1.5c0.7-1.1,0.7-2.4,0.5-3.7l0.4,0.2c-2.4,2.2-5,4.5-7.7,6.4c-1.4,1-2.9,1.8-4.3,2.3
		c-0.7,0.3-1.7,0.5-2.5,0.5c-0.4,0-0.8,0-1.3,0c-0.2,0-0.4,0-0.6-0.1c-0.1,0-0.2,0-0.3-0.1l0.1-0.2c1-1.3,1.9-2.4,2.8-3.5
		c4.3-5.5,8.8-11.1,13.3-16.9c2.2-2.9,4.6-5.7,6.8-8.6c1.1-1.3,2.1-2.7,3.2-3.9l1.5-1.9c0.2-0.3,0.5-0.6,0.7-1
		c0.2-0.3,0.2-0.8,0-1.2c-0.7-2.5-1.9,0.1-3,1.1c-1.1,1.3-2.2,2.5-3.3,3.7c-2.4,2.9-5,5.6-7.5,8.5s-5.1,5.6-7.7,8.4
		c-1.3,1.4-2.7,2.8-4,4c-1.3,1.3-2.5,2.5-3.8,3.7l-0.6,0.5l-0.3,0.3l0,0v-0.1v-0.1l0.1-0.2c0.1-0.6,0.3-1.2,0.5-1.7
		c0.4-1.2,1.1-2.1,1.7-3.1c1.3-2.1,2.5-4.2,3.8-6.4c2.7-4.5,5.2-8.9,7.8-13.4s5.2-9,7.8-13.5c1.3-2.2,2.5-4.6,3.9-6.8l0.5-0.8
		c0.2-0.3,0.3-0.6,0.4-1c0-0.2,0.1-0.3,0.1-0.5s0-0.4-0.1-0.5l-0.2-1l-0.8-4.5l0.2,2.3c-0.1-0.6-0.2-1.4-0.3-2l-0.2-1.1l-0.1-0.5
		v-0.2v-0.1l-0.1,0.1c-0.7,1.2-1.4,2.3-2,3.6c-0.5,1.2-1.2,2.2-1.7,3.4c-0.5,1.1-1.1,2.2-1.7,3.3c-2.2,4.5-4.3,9-6.6,13.1
		c-2.2,4.2-4.5,8.3-6.7,11.7c-2.2,3.4-4.1,6.6-5.6,9l0.8-1.8c-1.3,2.1-2.4,4.6-3.6,7c-0.5,1.2-1.1,2.3-1.7,3.5
		c-0.5,1.2-1.2,2.4-1.8,3.8l-0.1,0.2l-0.1,0.1c0,0,0,0.1,0,0v-0.4c0-0.3,0-0.6,0-0.8c0-0.6,0-1.3-0.1-1.8c0-1.4-0.1-2.7-0.1-3.8
		c0-2.2,0-4.1,0.1-5.7l-0.2-1.6c0-12,0.2-1.4,0.3-10.7c0-3.5-0.3-1.4-0.2-8.6c0.7-1.6-0.1-29.5,0.7-30.2c0,6.6,0.3-10.3,0.5,4.5
		c0-1.1,0-3.1,0.1-5.5c0-1.3,0-2.5,0-3.9c0-0.6,0-1.5-0.1-2.1c-0.1-0.7-0.3-1.5-0.5-2.1c-1-2.9-3.1-4.7-4.3-5.7
		c-0.7-0.6-1.4-1-1.7-1.1c-0.3-0.2-0.4-0.2-0.3,0c-0.8-0.3-2.9-1.5-3.5-1.7c-0.3-0.1-0.3,0,0.4,0.6c0.4,0.3,1,0.7,1.7,1.3
		c0.4,0.3,0.8,0.6,1.4,1s1,0.7,1.6,1.3c0,0,0.5,0.3,1,0.7c0.4,0.4,1,0.8,1,0.8c1.2,1.7,1.4,2.4,1.5,2.9c0.1,0.4,0.2,0.5,0.2,1.3
		c0.2,1,0.3,1.8,0.3,2.7s0,1.7,0,2.5c0,1.6,0,3.1-0.1,4.3c-0.1,2.7-0.1,4.8-0.2,6.8c-0.1,3.9-0.3,7.4-0.4,13.1c0-0.1,0-0.2,0,0
		c0.3,7.8,0.1,18.7,0,24.9l-0.2,2.4c-0.1,1-0.1,2.5-0.1,4.3c0.1,2,0.1,4.2,0.2,6.2c0.1,2.8,0.1,5.1,0.1,6.2s0,1.3-0.2-0.3
		c0,0.8,0,1.7,0,2.5c0,0.2,0,0.4,0,0.6l0.3-0.5l0.6-1.2c0.8-1.5,1.7-3.1,2.4-4.6l1.3-2.3l0.8-1.7c0.4-1,1-1.9,1.4-2.8
		c1.9-3.7,3.8-7.5,6.2-11c4.8-7.3,8.9-15.2,12.9-23.1c1.7-3.4,3.4-6.8,5.1-10.2l0.1-0.2c0,0,0-0.1,0.1-0.1v0.1l0.1,0.6l0.3,1.8
		c0.1,0.5,0.3,1.3,0.2,1.4c-0.1,0.3-0.2,0.7-0.5,1.3l-1.7,3c-2.2,3.9-4.6,8-6.8,11.9c-2.3,3.9-4.6,7.8-6.9,11.8
		c-0.6,1.2-1.8,3.2-3.1,5.5c-1.5,2.5-3.1,5.4-4.6,7.8c-0.5,0.8-1.1,1.8-1.4,2.5c-0.3,0.7-0.5,1.3-0.7,1.8c-0.3,1-0.5,1.8-0.7,2.3
		c-0.1,0.5-0.1,0.7-0.1,0.5c0.1-0.2,0.3-0.8,0.6-1.9c-0.2,0.5-0.4,1.1-0.6,1.8c0,0.2-0.1,0.4-0.2,0.6c0,0.1-0.1,0.2-0.1,0.3
		c0,0,0,0.1,0,0.2l0,0c0.1,0,0.2,0.1,0.3,0.2c1.3-1.2,2.8-2.5,4.6-4.1c1-0.8,1.8-1.8,2.9-2.8c0.6-0.6,1.3-1.3,2-2
		c2.7-2.7,5.4-5.6,8.2-8.7c2.8-3,5.3-6,7.6-8.7c0.8-1,1.5-1.7,2-2.3c-0.2,0.3-0.3,0.5-0.5,0.6c0.1,0,0.1,0,0.1,0l0,0v0.1v0.1
		c0,0.1,0,0.2,0,0.2c-0.2,0.2-0.3,0.3-0.3,0.4l-0.1,0.1c-0.4,0.5-0.8,1.2-1.3,1.7c-0.8,1.2-1.8,2.3-2.7,3.4
		c-3.4,4.5-6.7,8.8-12.7,15.7c-0.2,0.4-1.2,1.7-2.4,3.3c-0.6,0.8-1.4,1.8-2.2,2.9c-0.5,0.6-1.1,1.4-1.6,2.1
		c-0.7,1.1-1.6,2.1-2.4,3.2l0.3,0.1c0.1,0,0.3,0.1,0.4,0.1l0.8,0.1c0.5,0.1,1.1,0.2,1.7,0.2c0.6,0.1,1.3,0,2-0.1
		c0.2,0,0.3-0.1,0.5-0.1l0.4-0.1c0.2,0,0.4-0.1,0.6-0.2c1.7-0.6,3.3-1.5,4.7-2.5c2.9-2,5.5-4.2,7.8-6.5l-2.1-0.7
		c0.1,1.2,0.1,2-0.2,2.8c-0.1,0.3-0.4,0.6-0.6,1c-0.3,0.3-0.6,0.7-1,1.1c-1.4,1.4-2.7,2.4-3.7,3.3c-1.9,1.2-2.5,1.4-1.9,0.8
		c-3.6,2.2-7.5,3.8-11.7,5.2c-1.2,0.4-2.2,1.1-3.2,1.8c-0.5,0.3-1.1,1-1.5,1.5c-0.4,0.6-0.6,1.3-0.7,1.9c-0.2,1.3-0.1,2.4-0.2,3.5
		c0,1.1,0,2.1,0,3.3c0,4.3,0,8.6-0.1,12.7c0,2.1,0,4.1,0,6.2c0,0.7,0,1.4,0,2.1c0,1,0,1.9,0.1,2.8c0.1,0.7,0.2,1.4,0.3,2l0.2,1.1
		l0.2,0.7c0.6-1,1.4-2,2-3c0.3-0.5,0.7-1,1.1-1.4l1.1-1.3l0.1-0.1l0.1-0.1l0.1-0.1l0.2-0.3c0.2-0.2,0.3-0.4,0.5-0.5
		c0.4-0.3,0.7-0.7,1.2-1.1c1.5-1.5,3.1-2.8,4.7-4.1c1.6-1.4,3.2-2.8,4.6-4.2c1.5-1.5,2.7-3.1,3.9-4.5c1.3-1.5,2.4-2.9,3.6-4.3
		c1.3-1.5,2.3-3.1,3.3-4.7c1.9-3.2,3.2-6.6,4.1-9.9c0.5-2.1,1.2-4.1,2-6.3l0.3-0.7c0.1-0.2,0.2-0.4,0.2-0.5c0.2-0.3,0.2-0.3,0.3-0.3
		s0.2,0,0.3,0.1c0.1,0,0.4,0.2,0.5,0.2s0.1,0.1,0.1,0.1s0,0.1-0.1,0.4l-0.3,0.8c-0.2,0.5-0.5,1.2-0.7,1.7c-0.5,1.2-1,2.2-1.5,3.4
		c-0.5,1.3-1.1,2.4-1.6,3.7c-0.2,0.5-0.5,1.1-0.6,1.6c-0.2,0.5-0.3,1-0.4,1.5l-0.8,3.2c1.3-0.6,2.5-1.2,3.9-1.8
		c0.6-0.3,1.3-0.7,2-1.1c0.1-0.1,0.3-0.2,0.5-0.3l0.3-0.2l0.5-0.3c1.5-1,2.8-2.1,4-3.3c1.3-1.2,2.3-2.4,3.5-3.7
		c0.3-0.4,0.6-0.7,1.1-1.2c0-0.1,0,0,0.1,0.1c0,0.1,0,0.1,0,0.2s0,0.1,0,0.2c-0.1,0.5-0.3,1.1-0.4,1.6c-0.3,1.1-0.7,2-1.3,2.9
		c-0.2,0.4-0.5,0.7-0.8,1.1c-0.4,0.4-0.8,0.7-1.2,1.2c-1.6,1.5-3.2,3-4.8,4.3c-0.7,0.7-1.5,1.4-2.2,2.1c-0.3,0.3-0.7,0.6-1.1,1.1
		l-0.5,0.5c-0.1,0.1-0.3,0.3-0.4,0.5l-0.1,0.3l-0.3,0.6l0.3,0.5c0.1,0.1,0.1,0.3,0.2,0.4l0.5,1l1-0.3c0.8-0.3,1.7-0.6,2.4-0.8
		c0.5-0.2,1.1-0.3,1.6-0.5c0.3-0.1,0.5-0.2,0.8-0.3c0.1-0.1,0.2-0.1,0.3-0.1c0.1-0.1,0.3,0,0.3,0.1c0,0.2,0,0.2,0,0.8
		c-0.1,1-0.4,1.6-1.3,2.1c-1.1,0.6-2.2,1.2-3.4,1.8c-4.7,2.5-9.8,5.3-15,8.2c-0.6,0.3-1.3,0.7-2,1.1c-0.7,0.4-1.4,0.8-2,1.4
		c-0.6,0.5-1.3,1.2-1.8,1.8c-0.5,0.6-1,1.3-1.5,1.9c-1.9,2.4-3.7,5-5.4,7.5l-1.3,2c-0.5,0.8-0.7,1.7-1.1,2.4
		c-0.2,0.7-0.4,1.5-0.6,2.1c-0.2,0.6-0.5,1.4-0.8,2c-0.6,1.4-1.2,2.8-1.8,4.1l-0.1,0.2l-0.1,0.1c-0.1,0.1-0.2,0.3-0.3,0.6
		c-0.1,0.3-0.2,0.6-0.2,1v0.6c0,0.7,0,1.5,0,2.2l-0.1-2.3c0,3.3,0,6.8,0,10.3c0,1.7,0,3.5,0,5.3c0,1.4,0,2.8,0,4.2v2.4v1.3v0.6v0.1
		c0,0,0,0.1,0,0l0.2-0.2c1.9-2.2,3.7-4.6,5.6-6.8c1.2-1.4,2.2-2.8,3.4-4.1c2.2-2.8,4.5-5.5,6.7-8.3c2.2-2.7,4.3-5.3,6.6-7.7
		c2.2-2.4,4.5-4.7,6.6-7c4.1-4.5,7.7-8.8,10.6-12.3c2.8-2.9,5.9-6.6,9.3-10.7c1.7-2,3.4-4.2,5.2-6.4c0.8-1.1,1.8-2.2,2.7-3.3
		c0,0,0.1,0,0,0l0,0l0,0c0,0.5,0,1.1,0,1.7c0,0.3,0,0.6,0.1,1c0,0.2,0,0.5,0,0.7c-0.1,1.1-0.4,1.9-1.3,3c-0.8,1.2-1.7,2.2-2.7,3.4
		c-3.8,4.6-8.6,9.2-13.4,14.5c-4.7,5.3-9.5,10.7-14.3,16.1c-2.3,2.7-4.8,5.4-7.1,8.1c-1.2,1.3-2.3,2.7-3.4,3.9
		c-0.5,0.5-1,1.1-1.5,1.7c-0.5,0.5-1,1.1-1.4,1.6c-0.3,0.4-0.6,1-1,1.4c-0.3,0.4-0.6,1-1.1,1.4c0.1,0.3,0.1,0.5,0.1,0.7
		c0,0.1,0,0.2,0,0.3v0.1c0,0,0,0.1,0.1,0.2s0.2,0.3,0.3,0.4c0.1,0,0.1,0.1,0.2,0.1c0.1,0.1,0.3,0.2,0.6,0.2c0.1,0,0.3,0,0.5-0.1
		c0.2-0.1,0.4-0.2,0.7-0.3c0.5-0.3,1.1-0.5,1.9-1c2.4-1.7,5.3-3.7,8.1-5.6c4.3-3.1,8.4-5.8,9-6c9-6.9,18.2-14,28.3-21.7
		c0.1,0.2,0.1,0.4,0.2,0.5l0.2,0.4c0,0.1,0,0.1,0.1,0.1c0,0.1,0,0.2-0.1,0.3c0,0.1-0.1,0.2-0.4,0.4l-0.7,0.6l-1.5,1.3
		c-2,1.7-4.1,3.4-6.2,5.2c-4.1,3.5-8.4,7-12.6,10.5c-4.2,3.5-8.5,7.1-12.8,10.7c-2.1,1.8-4.3,3.6-6.5,5.4l-3.3,2.7l-2.1,1.8
		l-2.4,2.1c0,0.1,0.4,0.2,0.6,0.2l0.8,0.2c0.5,0.1,1.1,0.2,1.5,0.3c1.1,0.2,2.5,0.2,3.2,0.1c1.6-0.1,3.3-0.3,4.8-0.8
		c1.6-0.4,3.1-1.2,4.5-1.9l4.1-2.1l4.1-2.1l0.8-0.4l0.4-0.2c0,0.1,0,0.3-0.1,0.4c-0.1,0.3-0.2,0.6-0.3,1c0,0.1-0.1,0.1-0.1,0.2
		c0,0.1-0.2,0.2-0.3,0.4c-0.2,0.2-0.4,0.5-0.7,0.7c-0.2,0.2-0.5,0.4-0.8,0.6l-1,0.6c-0.6,0.4-1.4,0.7-2,1.2c-5.4,3-11.3,4.9-17.4,6
		c-3.1,0.6-6,1-9.3,1.6c-1.9,0.5-3.3,2-3.9,3.8c-0.1,0.4-0.2,1-0.2,1.4c0,0.4,0,0.8,0,1.2v2.3c0,6.3-0.1,12.5-0.1,18.7
		c0,3.1,0,6.2,0,9.3c0,1.6,0,3.2,0,4.7v4.1v4l2.4-3.2c0.7-1.1,1.6-2.1,2.3-3.3c1-1.3,1.8-2.5,2.8-3.8c1.8-2.4,3.5-4.9,5.3-7.4
		c3.5-4.9,7-9.8,10.4-14.5c0,0-0.2,0.2-0.3,0.4l-0.3,0.5c2.9-4.2,6.8-8.4,10.3-13c1.8-2.3,3.3-4.7,4.9-7c1.6-2.3,3.2-4.7,4.7-6.8
		c0.6-0.8,0.6-0.7-0.7,1.2c2.1-3,4.3-5.9,6.5-8.9c1.9-2.4,3.7-5,5.5-7.4l0.2-0.3c0,0,0-0.1,0,0v0.1v0.2v0.7v0.7v0.3v0.2v0.3
		c0.4,1.7,0.3,3.4-0.3,4.9c-0.5,1.6-1.8,2.8-3,4.2c-1.2,1.4-2.3,2.9-3.5,4.2c0-0.1,0-0.1,1.5-2c-8.7,10.8-18.5,22.1-28.6,35
		l-0.6,0.6l-6.9,8.8c0-0.2,0.1-0.3,1-1.5c0.1-0.2,0.3-0.4,0.5-0.7c0.2-0.2,0.4-0.5,0.6-0.8c0.5-0.6,1.2-1.5,2.1-2.5
		c-1.1,1.3-2,2.5-3.1,3.8c-0.8,1.1-1.9,2.3-2.7,3.4c-0.6,1.1-1.4,2.1-2.1,3.3c0.2,0.3,0.3,0.6,0.3,1v0.2l0,0l0.1,0.1l0.2,0.2
		c0.2,0.2,0.2,0.2,0.2,0.2c0.1,0,0.1,0.1,0.1,0.1c0.1,0.1,0.2,0.2,0.4,0.2c0.2,0,0.5-0.1,0.8-0.3c0.8-0.4,1.4-0.8,2.2-1.3
		c0.7-0.4,1.7-1.3,2.7-2l2.1-1.7l3.1-2.4c4-3.2,8.1-6.5,12.2-9.6c2-1.6,4.1-3.2,6.2-4.9s4-3.4,6-5.1c3.8-3.2,7.6-6.5,11.6-9.8
		l0.1-0.1l0.1,0.1l0.1,0.2v0.1c0,0.1,0.1,0.1,0.1,0.2s0.1,0.2,0.1,0.3v0.1c0,0,0,0.1-0.1,0.2c-0.1,0.2-0.4,0.4-0.6,0.6l-3.5,3.1
		c-2.3,2-4.8,4.1-7.1,6.2c-2.3,2-4.8,4.1-7.1,6.2l-4.8,4.1l-3.2,2.7c-0.5,0.4-1.2,1-1.5,1.3s-0.5,0.6-0.7,0.8l-0.4,0.6l-0.4,0.5
		l-0.4,0.5c-0.1,0.1-0.2,0.3-0.4,0.7l-0.1,0.3c0.1,0,0.2-0.1,0.3-0.1l0.6-0.3l1.3-0.5l2.5-1.1l5.1-2.2l1.3-0.5l0.6-0.3l0.3-0.1
		l0.4-0.2l2.2-1.2c2.9-1.5,5.6-3,8.5-4.5l4.1-2.1c0.1,0,0.2-0.1,0.3,0s0.1,0,0.4,0.4l0.4,0.4l0.1,0.1l0.2,0.2
		c-6.7,4.2-13.4,8.6-19.9,12.8c-3.5,2.2-7.1,4.6-10.6,6.8l-5.3,3.4c-1.8,1.2-3.5,2.2-5.3,3.5c-1.7,1.3-3.4,2.9-4.8,4.5l-4.3,4.7
		l-4.3,4.7l-0.5,0.5c-0.2,0.2-0.4,0.5-0.6,0.7c-0.3,0.5-0.5,1.3-0.5,2v3.2c0,4.2,0,8.5,0,12.7v6.4v3.3c0,0.8,0,1.7,0,2.4l0.2,0.8
		c0.1,0.2,0.2,0.4,0.3,0.6l0.6,0.6c0.1,0.1,0.1,0,0.1,0V519l0.1-0.1c0.1-0.1,0.1-0.2,0.3-0.1c0,0.1,0.1-0.1,0.2-0.2l0.2-0.2l0.4-0.4
		c0.1-0.2,0.3-0.2,0.4-0.5c0.1-0.3,0.2-0.4,0.3-0.5l0.7-0.8l1.1-1.1l3.9-4.1l7.7-8.3l7.8-8.3c1.3-1.4,2.5-2.8,3.9-4
		c1.4-1.3,2.8-2.5,4.2-3.7c1.5-1.3,2.9-2.5,4.2-3.9c1.4-1.4,2.5-2.8,3.9-4.2l7.7-8.4c4.8-5.2,9.6-10.4,14.4-15.7
		c0.1-0.2,0.1,0,0.1,0.1s0.1,0.2,0,0.4c0,0.2-0.1,0.5,0,0.7v0.4v0.6c0,0.4,0,1-0.1,1.4c-0.2,1.8-1,3.6-2,5.2c-1.1,1.6-2.4,3-3.9,4.3
		l-4.3,4.1l-17.3,16.5l3.4-3.4l-16.8,18.2c0-0.1,0.8-1,1.8-1.9c-1.9,1.8-3.9,3.7-5.7,5.7l-2,2.2c-0.7,0.8-1.4,1.6-1.7,2.1
		c-0.3,0.6-0.6,1-0.8,1.5c-0.1,0.3-0.2,0.6-0.3,1.1c0,0.1-0.1,0.2-0.1,0.3c0,0,0.1,0,0.1,0.1c0.1,0.1,0.1,0.1,0.2,0.2
		c0.4-0.1,0.8-0.3,1.2-0.4c0.3-0.1,0.6-0.3,1-0.4c0.6-0.3,1.2-0.5,1.9-0.8l4.5-2.7c2.1-1.3,4.2-2.7,6.4-3.9l6.4-3.9
		c2.1-1.3,4.1-2.8,6.3-4.1c4.1-2.8,8.3-5.5,12.4-8.3c2-1.4,4.1-2.8,6.2-4.1c1.1-0.6,2-1.4,3.1-2l1.4-1c0.3-0.2,0.5-0.4,0.8-0.5
		c0.1,0.5,0.2,1,0.5,1.7c0.1,0.5-0.3,0.8-1.1,1.5c-1.5,1.1-2.9,2.1-4.3,3.2c-2.9,2.1-5.7,4.1-8.5,6.3c0.1-0.1,3.8-3.1,0.2-0.5
		c-18.7,14-30.5,21.6-39.6,29.2c-0.8,0.6-1.6,0.8,0.3-0.5c-2.7,1.9-5.3,3.8-8,5.8l-1,0.7c-0.3,0.2-0.6,0.4-1.1,0.8
		c-0.4,0.3-0.7,0.7-1,1.3c-0.2,0.5-0.3,1.1-0.3,1.5v5c0,6.6,0,13.1,0,19.7c0,13.1,0,26.4,0,39.7s-0.1,26.5-0.1,39.8
		c0,6.7,0,13.3-0.1,19.9v10v1v0.3v0.2H317l-1.9,0.1l-5,0.2c-0.6,0.1-1,0.2-1.3,0.3s-0.7,0.2-1.1,0.2c-0.7,0.1-1.4,0-1.9-0.3
		s-0.8-0.7-1.1-1.5c-0.2-0.6-0.3-1.4-0.4-2.1c-0.3-3.1-0.2-6.3-0.2-9.4c-0.1-6.4-0.1-12.7-0.2-19.1c-0.3-13.6-0.5-27.6-0.7-41.9
		c-0.1-14.2-0.2-28.7-0.4-43.3c-0.1-3.6-0.1-7.3-0.2-10.9c-0.1-0.5-0.3-1.1-0.6-1.5c-0.1-0.2-0.3-0.4-0.5-0.6l-0.5-0.4l-2.2-1.6
		l-4.5-3.1c-5.9-4.1-12-8.3-17.9-12.4c-11.9-8.3-23.8-16.4-35.5-24.4h0.3c-0.6-0.4-1.2-0.8-1.9-1.3c-0.2-0.1-0.3-0.1-0.4-0.2
		l-0.2-0.1c-0.1,0-0.2,0-0.1-0.1c0-0.3,0-0.6,0-1l0.6-1.6l0.1-0.4l0.1-0.2c0,0,0.1,0,0.2,0.1l0.7,0.4l3.2,2c2.2,1.4,4.5,2.8,6.6,4.1
		c4.5,2.8,8.8,5.6,13.4,8.3s9.1,5.3,13.7,8.1c2.2,1.4,4.6,2.7,6.9,4l3.6,2.1c0.6,0.3,1.2,0.7,1.8,1c0.6,0.3,1.3,0.5,1.9,0.7
		c0.1,0,0.3,0.1,0.4,0.1l-0.3-0.5c-0.2-0.3-0.3-0.7-0.6-1l-1.5-1.8c-1.1-1.2-2.1-2.4-3.3-3.5c-2.2-2.1-4.5-4.1-6.7-6.3
		c-4.5-4.1-9-8.3-13.5-12.5c-4.5-4.1-9-8.4-13.5-12.5c-2.2-2.1-4.3-4.3-6.6-6.5l-3.3-3.3l-1.6-1.6l-0.8-0.8
		c-0.2-0.3-0.5-0.5-0.5-0.8l-0.3-5.2l-0.1-2.3c-0.2-0.6,0.4-0.2,0.6,0c0.3,0.2,0.5,0.5,0.8,0.8l7.2,7.6c4.9,5.2,9.9,10.4,15,15.4
		c2.5,2.5,5.1,5,7.7,7.4c2.7,2.4,5.4,4.8,8,7.1c5.3,4.8,10.2,10,15.1,15.1c1.6,1.7,3.2,3.4,4.7,4.9c0.7,0.7,1.4,1.5,2.2,2.3
		c0.4,0.4,0.7,0.7,1.2,1.2c0.4,0.3,0.8,0.7,1.2,1c0.1-1.4,0.1-2.7,0.1-4c0-1.2,0-2.3,0-3.4c0-2.2,0-4.5,0-6.7s0-4.3,0-6.5
		c0-1.1,0-2.1,0-3.2v-1.6c0-0.5-0.2-1.2-0.6-1.6c-1.4-1.2-2.3-2.7-3.2-4.1c-0.8-1.6-1.5-3.3-2.3-4.9c-0.4-0.8-0.8-1.6-1.5-2.3
		c-0.6-0.7-1.3-1.4-1.8-2c-1.3-1.3-2.5-2.7-3.8-3.9c-1.3-1.3-2.7-2.5-4.1-3.8c-1.4-1.3-3-2.5-4.7-3.5c-0.8-0.5-1.8-0.8-2.8-1.2
		s-1.9-0.6-2.9-1.1c-1.9-0.7-3.9-1.4-5.8-2.1l-0.6-0.4c-4.9-1.7-9.8-3.4-14.7-5.2c-0.6-0.2-1.3-0.4-1.8-0.6
		c-0.5-0.2-1.1-0.6-1.5-1.2c-0.3-0.5-0.5-1.2-0.6-1.8c-0.1-0.6-0.2-1.3-0.1-1.9c0-0.3,0.2-0.6,0.5-0.6c0.3-0.1,0.6,0,1,0
		c0.5,0.1,1.3,0.4,1.9,0.6c1.4,0.4,2.7,0.5,4,0.5c0.3,0,0.6,0,1.1-0.1c0.2,0,0.3-0.1,0.5-0.1c0.1,0,0-0.1-0.1-0.1l-0.2-0.1l-1.7-1.1
		c-1.1-0.7-2.3-1.5-3.5-2.3c-2.2-1.5-4.5-3-6.8-4.3c-1.2-0.7-2.3-1.4-3.3-2.3c-1-1-1.7-2-2.3-3.3c-0.6-1.2-1.2-2.4-1.5-3.6
		c-0.2-0.5-0.3-1.2-0.3-1.8c0-0.3,0-0.6,0-1v-0.4c0-0.1,0,0,0.1,0l0.1,0.1l0.2,0.1l2.2,1.8l2.4,2c1.7,1.4,3.4,2.7,5.2,3.9
		c1.8,1.2,3.7,2.3,5.7,3.2l0.7,0.3c0.3,0.1,0.6,0.2,0.8,0.3l1.8,0.6l1,0.3l0.4,0.1c0.1,0,0.4,0.1,0.2-0.1l-0.8-1.7l-0.8-1.7
		c-0.1-0.3-0.3-0.5-0.5-0.8l-0.4-0.6l-1.8-2.8l-3.5-5.5l-0.8-1.4c-0.1-0.2-0.2-0.4-0.3-0.6c-0.1-0.2-0.1-0.4,0-0.6
		c0.2-0.4,0.5-0.6,1-1c0.4-0.3,0.8-0.4,1.4-0.5c1-0.1,1.8,0.5,2.2,1.4c0.5,1,1,1.9,1.5,2.9l3,5.7c1,1.9,2,3.9,3.3,5.7
		c1.3,1.8,2.7,3.5,4.1,5.1c1.6,1.5,3.2,3,4.8,4.5c3.3,2.9,6.7,5.5,10.3,8c1.8,1.3,3.6,2.4,5.4,3.5c1.8,1.2,3.7,2.1,5.5,3.3
		c0,0-0.8-0.5-1.7-1l-1.7-0.8c1.9,1,4.7,2.5,7.2,5c0.6,0.6,1.3,1.2,1.9,1.9c0.3,0.3,0.6,0.6,0.8,1.1c0.3,0.3,0.6,0.8,1,1.2
		c0.3,0.4,0.6,0.8,1,1.3c0.3,0.4,0.6,0.8,1.1,1.2l0.1,0.1c0,0,0,0.1,0,0v-0.2v-0.4l0.1-0.7c0-0.5,0.1-1.1,0.1-1.5
		c0.1-1.8,0.2-3.5,0.3-5.1c0.1-1.5,0.1-2.8,0.2-3.7c0.1-2,0.1-3-0.1-2.1c0,0,0-0.6,0.2-1.5c0.1-1,0.3-2.1,0.4-3.4
		c0.3-2.4,0.6-4.9,0.6-4.9c0-0.7,0.3-1.6-0.1-2.4c-0.2-0.4-0.5-0.6-0.7-1l-0.8-0.8c-1.2-1.1-2.4-2.1-3.8-2.9s-2.9-1.4-4.3-1.7
		c-1.5-0.2-3.1-0.5-4.6-0.8c-6-1.3-11.9-3.5-17.2-6.7c-1.3-0.8-2.7-1.7-3.8-2.5c-0.6-0.4-1.3-1-1.8-1.5c-0.5-0.6-0.8-1.4-1.1-2.1
		c-0.2-0.8-0.3-1.6-0.5-2.4l-0.1-0.6v-0.1c0,0,0.1,0,0.1,0.1l0.3,0.2l1.1,0.6c1.4,0.8,2.8,1.7,4.1,2.5c2.7,1.7,5.4,3.3,8.3,4.8
		c1.5,0.6,3.1,1.1,4.7,1.5c0.8,0.2,1.6,0.3,2.4,0.5c0.8,0.2,1.7,0.2,2.5,0.1l0.5-0.1h0.3c0.1,0,0.1-0.2,0.1-0.2
		c0.1-0.2-0.1-0.3-0.2-0.4l-0.4-0.3c-0.5-0.5-1.2-1.1-1.7-1.6c-1.2-1.1-2.2-2.1-3.4-3.2c-2.3-2.1-4.7-4.3-7.1-6.6
		c-4.9-4.5-10-9.1-15.4-14l2.3,1.9c-3.4-3.2-7.1-6.5-10.6-9.6c-1.7-1.6-3.5-3.2-5.1-4.7c-0.8-0.7-1.6-1.5-2.4-2.2
		c-0.4-0.3-0.7-0.6-1.2-1.1c-0.3-0.4-0.5-1-0.4-1.4c0.2-1.1,0.8-1.9,1.1-2.7c0.8,0.5,1.6,1.3,2.2,1.8c0.6,0.5,1.3,1.1,1.9,1.6
		c-1.1-0.8-0.6-0.4-2.9-2.2c7,6.2,14.4,12.5,22,18.9c1.9,1.6,3.7,3.2,5.7,4.8c1.9,1.5,3.9,3.1,5.8,4.6c2,1.5,3.9,3.1,5.9,4.7
		c1.1,0.8,2.4,1.9,3.5,2.7c0.5,0.4,1.1,0.8,1.6,1.1s1,0.3,1.5,0.5l0.3-0.3l0.1-0.1l-0.1-0.1l-0.3-0.5c-0.2-0.4-0.4-0.8-0.6-1.3
		c-0.8-1.3-1.6-2.4-2.5-3.6l-2.4-3L283,424c-3.2-3.9-6.4-7.7-9.5-11.7c-3.2-3.9-6.4-7.7-9.5-11.7c-3.2-3.8-6.4-7.6-9.2-11.7l3,3.5
		c-1.5-1.9-3.2-4.1-5-6.4c-0.8-1.2-1.8-2.3-2.8-3.6c-0.4-0.6-0.7-1.3-0.6-2c0.1-0.8,0.1-1.6,0.2-2.4c0.1-1.5,0.2-3,0.3-4.6v-0.3
		v-0.1V373l0,0l0.3,0.4c0.2,0.3,0.4,0.5,0.6,1c0.4,0.6,1,1.3,1.4,1.9c2,2.9,4.1,5.8,6.3,8.8c4.2,5.9,8.7,12.1,13.1,17.9
		c2.2,2.9,4.6,5.7,6.8,8.4s4.6,5.2,6.6,7.7l-1.1-1.2c0,0,2.1,2.4,4.1,5.1c2,2.5,4,5.2,4,5.2v0.4c2.2,3.2,4.5,6.3,6.7,9.3
		c1.1,1.5,2.2,3.1,3.3,4.6c0.6,0.8,1.3,1.7,1.8,2.5c0.6,1,1.4,1.8,2,2.7h0.1v-0.1v-0.3l0.1-0.7l0.1-1.4c0.1-1,0.1-2,0.1-2.9
		c0-1.6,0.1-3.2,0.1-4.8c0.1-3.2,0.1-6.4,0.2-9.5v-1.2c0-0.4-0.1-0.8-0.2-1.3c-0.1-0.2-0.1-0.4-0.2-0.6l-0.3-0.5l-0.6-1.1l-2.4-4
		c-1.6-2.7-3.3-5.4-4.9-8.1l-2.4-4l-2.5-3.9c-1.7-2.7-3.6-5.2-5.8-7.4C282.2,391.2,277.5,387.2,272.6,383.1"/>
	<path fill="#000000" d="M203.9,376.2l-0.3-0.7c-0.1,1.5-0.3,3-0.4,4.5c-0.2,1.5-0.5,2.9-1.2,4.2c-1.3,2.8-2.7,5.6-3.6,8.7
		c-1,3.1-1.6,6.2-2,9.3c-0.2,1.6-0.3,3.2-0.4,4.7c-0.1,1.6-0.2,3.1-0.2,4.7c0,0,0-0.2-0.1-0.4l-0.1-0.4c-0.4,7.8-0.1,15.6,0.3,23.1
		c0.4,7.5,0.8,15.1,1.3,22.6c1,15,1.8,29.9,2.8,45.4c-0.1-0.5-0.2-0.6-0.3-1.2c0.2,1.5,0.6,3.2,0.6,4.8c-0.1,0.4-0.2-0.4-0.3-1
		c-0.5,6.6,1.5,19.2,1.1,23.3c0.2,1.8,0.5,2.7,0.7,1.6c0.7,12.1,1.5,24.7,2.4,37.2c0.4,6.3,1.1,12.6,1.7,18.9
		c0.2,1.6,0.4,3.1,0.6,4.6c0.2,1.6,0.4,3.1,0.7,4.7c0.4,3.1,0.8,6.3,1.2,9.3c0,1.2-0.2,1.5-0.5,1.2c1.6,10.5,2.4,21.3,2.8,32.3
		c0.1,2.8,0.1,5.5,0.1,8.3c0,0.7,0,1.4-0.1,2.1c0,0.3,0,0.8-0.2,1.4c-0.1,0.3-0.1,0.5-0.2,0.8c-0.1,0.2-0.2,0.5-0.4,0.7
		c-0.3,0.4-0.7,0.7-1.2,1.2l-0.5,0.3c-0.2,0.1-0.3,0.2-0.5,0.3c-0.6,0.4-1.3,0.7-1.9,1.1c-2.5,1.3-5.3,2.2-8,3
		c-2.8,0.7-5.5,1.3-8.5,1.3c-0.8,0.4,2.4,0.2,0.1,0.7c3.8,0.1,7.2-1,10.2-2.1c1.5-0.6,3-1.3,4.5-1.9s3-1.4,4.6-2.2
		c0,0-0.1,0.2-0.3,0.4c-0.1,0.2-0.3,0.4-0.3,0.4c0.3-0.1,0.5-0.3,0.7-0.4c0.2-0.1,0.5-0.4,0.8-0.6c0.5-0.4,0.7-0.8,1-1.1
		c0.2-0.3,0.2-0.5,0.3-0.6c0-0.2,0-0.3,0-0.4c0-0.2,0-0.5,0-1.2c0-0.2,0-0.6,0.1-1.1c0-0.4,0.1-0.8,0.1-1.5c0.3-1.9,0.4,0.5,0.4-0.4
		c0-5-0.1-10-0.4-15c-0.2-5-0.6-9.8-1.4-14.3c0.5-2.3-0.7-10.5-0.4-14.2c-0.5-2.5-0.7-5.1-1.3-5.9c-0.2-2.1-0.5-4.2-0.7-6.5
		c-0.2-2.1-0.5-4.1-0.6-6.3c-0.4-4.2-0.6-8.5-1-12.8c-0.5-8.6-1.2-17.2-1.7-25.9c-1.1-17.3-2.1-34.8-2.9-52.3
		c-2.1-16.3-1.4-35.9-2.8-55.4c0-0.1,0.1-0.1,0.1,0c-0.6-6.4-1.3-15.5-0.8-23l-0.2-3.2l-0.1-3.2c0.6-7.5,2-14.8,5.5-21.5
		c0.8-1.7,1.7-3.6,2.1-5.6c0.4-1.9,0.6-3.7,1-5.6c0.7-3.7,1.6-7.3,2.9-10.8c1.3-3.5,2.9-6.9,4.9-10.1s4.1-6.4,6.4-9.5
		c2.2-3.2,4.2-6.4,6.6-9.2c1.2-1.5,2.4-2.9,3.8-4.1c0.6-0.6,1.4-1.2,2.1-1.9c0.2-0.2,0.4-0.4,0.7-0.7c0.1-0.2,0.3-0.5,0.4-1
		c0.1-0.4,0-0.8-0.1-1.1c-0.2-0.5-0.4-0.8-0.6-1.1c-0.2-0.3-0.4-0.5-0.7-0.8c-0.2-0.2-0.4-0.4-0.7-0.6l-0.4-0.2l-0.4-0.2
		c-0.6-0.2-1.3-0.2-1.8,0c-0.3,0-0.6,0.2-0.8,0.3l-0.8,0.4c-0.1,0.1-0.3,0.2-0.4,0.2l-0.3,0.2l-0.5,0.4c-1.5,1.3-2.7,2.5-3.8,3.9
		c-2.2,2.8-4.2,5.6-6.2,8.6l2.8,1.4c3.1-8.2,5.7-16.3,7.8-24.7c0.8-3.2,1.5-6.5,1.9-9.8c0.2-1.7,0.4-3.3,0.4-5v-1.3l-0.1-1.3
		c-0.1-0.8-0.1-1.7-0.3-2.5c-0.1-0.4-0.2-0.8-0.3-1.3c-0.1-0.4-0.2-1-0.5-1.5c-0.2-0.3-0.3-0.6-1-1.1c-0.1-0.1-0.3-0.2-0.5-0.3
		c-0.2-0.1-0.4-0.1-0.7-0.2c-0.2,0-0.5,0-0.7,0.1c-0.2,0.1-0.4,0.1-0.5,0.2c-0.6,0.3-0.8,0.6-1.1,1c-0.2,0.3-0.3,0.5-0.4,0.7
		c-1,1.8-1.4,3.3-1.8,4.9c-0.8,3.2-1.6,6.3-2.2,9.3l-0.4,2.3l-0.3,1c-0.1,0.3-0.2,0.7-0.3,1.1c-0.5,1.4-1.1,2.9-1.6,4.2
		c-1.2,2.9-2.3,5.7-3.5,8.6c-2.3,5.7-4.7,11.3-7,17.1c-2.3,5.7-4.6,11.3-6.6,17.2c-1.1,2.9-2,5.9-2.9,8.9l-0.5,2.2l-0.2,1.2
		c-0.1,0.4-0.2,1-0.3,1.5c-0.1,0.2-0.2,0.5-0.3,0.7c-0.1,0.1-0.2,0.1-0.3,0c-0.1-0.1-0.1-0.2-0.2-0.3c-0.2-0.4-0.4-1-0.5-1.5
		c0-0.1-0.1-0.2-0.1-0.4l-0.1-0.6l-0.1-0.6v-0.3v-0.5c-0.1-1.5-0.2-3.1-0.3-4.6c-0.2-6.2-0.2-12.5-0.1-18.9c0.1,0.1,0.2-0.3,0.2,1
		c0.5-14.7,2.2-28.1,3.3-41.9l0.1-0.4c0.1-1.3,0.1-2.4,0.3-3.6c0-0.5,0.2-1.2,0.3-1.7c0.1-0.6,0.2-1.2,0.4-1.8
		c0.5-2.3,1.3-4.8,2-7.1c1.5-4.8,3.1-9.5,4.8-14.2c1.7-4.8,3.4-9.5,5-14.3c0.8-2.4,1.6-4.8,2.2-7.3c0.3-1.4,0.4-2.5,0.7-3.7
		c0.1-0.6,0.3-1.2,0.5-1.7l0.1-0.2c0-0.1,0,0,0.1-0.2v-0.2v-0.1c0,0,0,0,0-0.2s-0.1-0.4-0.2-0.6c-0.1-0.2-0.2-0.2-0.3-0.3
		c-0.3-0.2-0.3-0.1-0.4-0.1h-0.2c-0.1,0-0.2,0-0.3-0.1c-0.1,0-0.3-0.1-0.5-0.2c-0.3-0.1-0.5-0.2-0.8-0.3s-0.5-0.2-0.8-0.1
		c-0.5,0.1-1.1,0.5-1.5,1c-0.4,0.4-0.7,1-1.1,1.4c-0.2,0.4-0.5,0.8-0.7,1.3c-1,1.6-1.7,3.3-2.4,5c-1.5,3.3-2.8,6.7-4,10.1
		c-2.5,6.7-4.7,13.4-6.7,19.9l1.1,0.2c0-0.7,0-1.5,0-2.2c0.1-10.2,0-20.6-0.6-31.3c-0.3-5.3-0.7-10.7-1.8-16.1
		c-0.3-1.5-0.7-3.1-1.5-4.2c-0.4-0.6-0.7-1.3-1.5-1.4c-0.3-0.1-0.7,0-1.1,0.2c-0.3,0.1-0.6,0.4-0.8,0.6c-1.1,1-1.6,2.4-1.9,4
		c-0.1,0.4-0.1,0.7-0.2,1.2l-0.1,1.1c-0.1,0.7-0.1,1.4-0.1,2.1c-0.2,5.5,0.4,11,1,16.4c0.5,5.4,1.3,10.9,1.7,16.3
		c0.1,1.4,0.1,2.8,0.2,4c0,1.4-0.1,2.8-0.1,4c-0.2,2.8-0.4,5.4-0.6,8.2c-0.4,5.4-1,10.8-1.5,16.1l-0.2-0.1
		c-1.6,17.1-3.9,33.8-7,50.4c-0.8,4.1-1.6,8.3-2.7,12.3l-0.4,1.5l-0.4,1.4c-0.2,0.7-0.5,1.5-0.8,2.2c-0.1,0.3-0.3,0.7-0.5,1.1
		c-0.2,0.3-0.5,0.6-1,0.5c-0.3-0.1-0.5-0.5-0.7-1l-0.4-1.1c-0.1-0.4-0.3-0.6-0.4-1.2l-0.4-1.3l-0.4-1.3l-0.4-1.5c-0.6-2-1.2-4-1.7-6
		c-1.1-4.1-2.1-8.2-3.1-12.4c-2.1-10.5-4.2-21.1-5.9-31.9c-0.2-1.4-0.4-2.7-0.5-4l-0.2-2l-0.2-2c-0.1-1.4-0.2-2.7-0.2-4
		c0-1.4,0-2.8,0-4.1s-0.1-2.8-0.1-4.1c0-0.7-0.1-1.4-0.2-2.1l-0.1-1.1c0-0.3-0.1-0.7-0.2-1.1c-0.3-1.5-0.6-2.9-1.5-4
		c-0.4-0.5-1.1-1-1.8-0.8c-0.7,0.1-1.4,0.4-1.8,1c-0.5,0.6-0.7,1.5-0.8,2.3c-0.2,0.8-0.2,1.7-0.3,2.5c-0.1,1.7-0.1,3.3-0.1,5
		c0,3.3,0.2,6.6,0.5,9.9c0.5,6.6,1.2,13,1.8,19.4l0,0c-0.4-1-0.8-1.8-1.2-2.8c-1.9-5.2-4-10.7-5.9-16.4c-1-2.9-1.9-5.8-2.7-8.9
		c-0.3-1.5-0.6-3.1-1.1-4.6c-0.4-1.5-0.8-3.1-1.4-4.6c-1.1-3-2.3-5.8-4.5-8.1c-1.1-1.1-2.3-1.9-3.7-1.9c-0.3,0-0.7,0.1-1.1,0.1
		l-1,0.3c-0.6,0.3-1.3,0.6-1.6,1.2c-0.7,1.1-0.5,2.5-0.3,3.9c0.2,1.4,0.6,2.8,1.1,4c0.8,2.7,1.8,5.2,2.8,7.6
		c3.9,9.9,8.4,19.4,12.3,29.1c2,4.9,3.8,9.6,5.4,14.6c1.6,5,3,10,4.5,15c2.9,10.1,5.9,20,9.3,29.9c3.4,10,6.4,20,8.7,30.3
		c1.7,9.6,3.1,19.3,4,29.1c0.5,4.9,0.8,9.8,1.2,14.5c0.3,4.9,0.6,9.6,1,14.5c1.2,19.3,2.1,38.5,2,57.5c0.8,8.9,0.8,18.3,0.6,28.1
		c-0.2,9.6-0.4,19.6-0.3,29.6l0.3-0.7c-1.1,7.1,1,16-0.8,20.4v-0.7c-1,3.7,1.3,8.9,0.2,11.1l0.3,0.6c-0.2,4.6-0.4,0.5-0.8,4
		c0,1.4,0.6,0.5,0.2,3.3c-1.6,0.5-0.6,11.2-2.4,11.5c0.2-2.5-1.1,3.8-0.8-1.8c-0.3,1.6-1,9.2-0.2,8.6c0.7,0.7,1.1,3.8,2.2-0.7
		l-0.5-1c0.7-1.5,0.4-1.2,0.8-1.7c0.6-6,1.6-6.8,2.2-11.1c0,0,0,0.1-0.1,0c-0.4-3.1,0.3-7.1,0.5-9.5l0.4-1c0.7-1.4-0.8-7,0.2-5.1
		c0.2-6.3,0.5-12.9,0.7-19.7c0.2-6.9,0.2-14,0-20.9c-0.4-1.9-0.2-10.6-1-7.6c1-3.5,0.8-13.9,0.7-17.7c0.1,0.1,0.2,0.3,0.2,1
		c1.1-7.5-1.4-8.8-0.1-15.8c-1.1-1.1-0.1-12.7-1.6-16.5c0.2-0.8,0.4-1.2,0.6-0.8c-0.4-12.5-0.7-26.4-1.2-37c-1.4-9-0.6-22-2.5-29.7
		c-0.2-6.5-0.7-17.1-2.8-26l0.3,0.8c-0.8-5.1-1.9-10.7-3.3-16c-1.3-5.2-2.8-10-4.1-13.3c0.4-3.3-1.1-7.4-2-11.8
		c-1.3-3.2-2.9-8.1-4.6-13.4c-1.6-5.3-3.3-11.1-5-16c0.1-1.7-2.5-8.2-1.9-8.9c-1.3-3.5-2.5-7-3.9-10.6c-1.5-3.6-3-7.2-4.7-10.9
		c-3.3-7.3-6.9-14.6-10.4-22.2c-1.7-3.7-3.4-7.5-4.8-11.2c-0.6-1.9-1.3-3.8-1.6-5.6c-0.1-0.8-0.2-1.8-0.1-2.3c0-0.2,0.1-0.3,0.2-0.5
		c0.1-0.1,0.2-0.2,0.5-0.3c1.4-0.7,2.2-0.5,3.3,0.3c1.1,1,2,2.4,2.8,4.1c1.5,3.3,2.2,7.1,2.8,10.7l-0.1-0.4c0.3,0.8,0.6,2,1.1,3.1
		c0.4,1.1,0.8,2.1,1.4,3.1c1,2,2,4,3,5.9c0.1,0.4-0.1,0.4-0.3-0.4c1.9,5.4,3.2,10.6,5.5,15.8c-0.1,0-0.1,0-0.6-0.7
		c0.7,1.4,1.3,2.8,1.9,4.2l4.7,10.8l-1.8-12.4c-0.4-3.9-0.4-8.2-1.4-12.5l0.2-0.3l-0.6-3.9c0.3,0.1,0.7,0.2,0.8,2.3
		c-0.3-4-0.6-8.1-0.7-12c0-2,0-4,0.1-5.9c0.1-1.3,0.1-1.1,0.1-1.4c0-0.2,0.1-0.4,0.2-0.6c0.2-0.2,0.5-0.3,0.7-0.1
		c0.2,0.2,0.2,0.5,0.3,0.7v0.2v0.1v0.3c0.1,0.6,0.1,1.2,0.1,1.8c0.1,1.3,0.1,2.4,0.1,3.7c0,1.3,0,2.5,0,3.8v1.9v2
		c0,1.4,0.2,2.7,0.3,4l0.4,3.9c1.5,10.3,3.5,20.5,5.7,30.6c1.2,5.1,2.4,10.2,3.8,15.2c0.7,2.5,1.4,5.1,2.2,7.5l0.3,1l0.4,1.2
		l0.8,2.3c0.2,0.8,0.6,1.5,1.1,2.2l0.6,1.1l0.3,0.5l0.1,0.2l0.2,0.2c0.2,0.2,0.4,0.4,0.7,0.5s0.8,0.1,1.1,0c0.6-0.3,1.1-0.7,1.5-1.4
		c0.8-1.2,1.6-3.1,2.1-4.9l0.3-1.2l0.2-1l0.4-1.9c0.3-1.3,0.5-2.5,0.8-3.8c1.1-5.2,1.9-10.3,2.8-15.5v1.9c0,0,0.2-2.4,0.5-4.9
		c0.2-2.4,0.5-4.9,0.5-4.9c0.1,0.1,0.1,0.5,0.1,1c2.2-12.2,3.1-25,4.5-37c0.1,0.1,0.2,1.9,0.5,0.2c0.2-8.9,2.4-14.2,1.3-18.8
		c0.1-0.4,0.5-0.6,0.5,0.2c0.2-3.1,0.4-6.2,0.3-9.4c-0.1-3.2-0.4-6.4-0.7-9.4c-0.6-6.3-1.5-12.5-1.9-18.7c-0.2-3.1-0.3-6.3-0.1-9.2
		c0-0.4,0-0.7,0.1-1.2l0.1-0.5v-0.3v-0.2c0.1-0.4,0.2-0.8,0.3-1.3s0.3-0.7,0.6-1.1c0.1-0.1,0.3-0.3,0.5-0.3c0.2-0.1,0.4-0.1,0.6,0
		c0.3,0.2,0.5,0.6,0.6,1c0.1,0.4,0.2,0.7,0.3,1.2l0.1,0.7l0.2,1.2c0.1,0.7,0.2,1.5,0.3,2.2c0.4,3.1,0.6,6.2,0.8,9.2
		c1.6,11.6,1.7,24,1.6,36.5l-0.1,5.5l1.8-5.2c3.1-9.2,6.4-18.5,9.5-27.4l0.2,0.2c0.8-2.1,1.7-4.2,2.7-6.3c0.5-1,1.1-2.1,1.6-3
		c0.3-0.4,0.6-0.8,1.1-1.2c0.2-0.1,0.5-0.2,0.7,0c0.2,0.1,0.4,0.2,0.7,0.3c0.3,0.1,0.7,0.2,1.1,0.2h0.1l0,0c0,0,0-0.1,0.1-0.1
		c0,0,0,0,0.1-0.1l0,0c0,0,0,0-0.1,0c0,0,0,0-0.1,0l0,0l0,0v0.1l-0.2,0.5c-0.2,0.7-0.4,1.5-0.5,2.2c-0.3,1.5-0.4,3-0.8,4.3
		c-0.7,2.9-1.8,5.7-2.8,8.6c-2,5.7-4.1,11.5-6.2,17.2c-1.1,2.9-2,5.7-3.1,8.7c-1,2.9-1.9,5.8-2.7,8.8c-0.2,0.7-0.4,1.5-0.5,2.2
		c-0.1,0.7-0.2,1.6-0.3,2.3l-0.4,4.6c-0.3,3.1-0.5,6-0.8,9.1c-1.2,12-1.5,20.1-2,32.2l-0.3,0.3c0.1,5.1,0,10.3,0.1,15.6
		c0,1.4,0.1,2.7,0.1,4c0,0.6,0.1,1.4,0.2,2.1c0.1,0.7,0.1,1.4,0.2,2.1l0.4,2.1c0.2,0.7,0.4,1.4,0.6,2c0.3,0.6,0.5,1.3,1,1.8
		c0.2,0.2,0.4,0.5,0.8,0.6c0.4,0,0.6-0.2,0.8-0.4c0.7-1,1.3-2.1,1.7-3.5c0.5-1.4,1-3.1,1.3-4.6c0.7-2.8,1.4-5.2,2.3-7.7
		c1.7-5.1,3.6-10.2,5.2-15.2l-0.1,1.6c0.5-3.4,5-11.9,3.3-11.1l1.8-3.3c1.9-7,4.6-13,7.3-19.4c0.6-1.6,1.4-3.2,1.9-5
		c0.3-0.8,0.4-1.8,0.6-2.7c0.2-1,0.4-1.8,0.6-2.8c0.4-1.9,0.8-3.8,1.3-5.7c0.2-1,0.4-2,0.7-3.1s0.5-2,1.2-3.1l-0.3,1.2
		c0.2-0.5,0.4-1.1,0.8-1.5c0.2-0.2,0.5-0.2,0.7,0c0.2,0.2,0.3,0.5,0.4,0.7c0.4,1.2,0.7,2.3,0.8,3.6c0.1,0.6,0.1,1.2,0.2,1.8
		c0,0.5,0,1.2,0,1.7c0,1.1-0.1,2.1-0.3,3c0-0.5-0.1-0.3-0.1-1.4c-1,5.9-2.4,12.1-4.1,18.3s-3.5,12.5-5.6,18.7l-0.8,2.3l1.3-2.1
		c1.4-2.3,3-4.7,4.6-6.8l-0.6,1.7c1-1.6,2.2-3.4,3.8-5.2c0.8-0.8,1.7-1.8,2.8-2.5c0.4-0.3,1-0.6,1.6-0.6c0.3,0,0.6,0,0.8,0.2
		c0.2,0.2,0.4,0.4,0.6,0.6c0.2,0.2,0.4,0.4,0.6,0.7c0.1,0.1,0.1,0.2,0.1,0.3c0,0.1,0,0.1-0.1,0.2c-0.3,0.4-1,1-1.5,1.4
		c-1.1,1-2.1,2-3.2,3.1c-1.9,2.1-3.6,4.3-5,6.5l0.1-0.6c0,0-0.6,1.1-1.3,2.1s-1.3,2.2-1.3,2.2l-0.5-0.2c-3.5,5.3-7.3,10.4-9.9,16.1
		c-1.3,2.9-2.3,5.8-3.2,8.8C205,370,204.4,373,203.9,376.2"/>
	<path fill="#000000" d="M395,453.9l-0.4-0.4c0.5,6.8-0.8,14.3-1.4,21.4l-0.1-0.5c-1.3,9-2.7,17.6-5,26c-1.2,4.1-2.5,8.3-4.5,12.3
		c-0.8,2-2,3.9-3.1,5.8c-1.1,2-2.3,3.8-3.5,5.7c0.1-0.2,0-0.4,0.2-0.7c-0.3,0.8-0.6,1.8-1.3,2.5c-0.2,0.1,0-0.3,0.1-0.6
		c-0.7,0.6-1.5,1.5-2.3,2.5c-0.7,1-1.5,2.1-2.3,3.2c-0.8,1.1-1.6,2-2.3,2.9c-0.6,0.8-1.4,1.4-1.9,1.8c-0.7,0.8-0.7,1.4-0.2,1.2
		c-5,5.1-10.7,9.9-17.1,13.7c-6.4,3.9-13.1,7.1-20,9.4c-0.7,0.1-0.8-0.1-0.7-0.4c-5.8,2.3-12.1,3.8-18.6,4.5
		c-6.5,0.6-12.9,0.5-19.3,0c-0.5,0.3,1.3,0.4,0,0.7c4.1,0.6,7.5-0.5,11.3,0l-0.4,0.3c2.8,0.1,0.5-0.8,3.4-0.5
		c1.2,0.2-0.2,0.4,0.2,0.4c5.7-0.4,11.9-1,17.1-3c0.7,0.2,2.2-0.2,3.8-0.5c1.6-0.4,3.3-1,4.5-1c1.4-0.7,2.8-1.2,3.2-1.8
		c4.8-1.6,9.5-3.6,14-6.2c4.5-2.5,8.8-5.4,12.7-8.7c3.9-3.4,7.6-6.9,10.9-10.9c1.7-1.9,3.2-4,4.8-6c0.8-1.1,1.5-2.1,2.2-3.2
		c0.7-1.1,1.5-2.1,2.1-3.2c0.4-1.2,1-2.2,1.6-3.4c0.5-1.2,1.2-2.2,1.7-3.5c0.3-0.6,0.6-1.2,0.8-1.8c0.3-0.6,0.5-1.2,0.8-1.8
		c0.6-1.3,1.1-2.4,1.7-3.8c2.1-5.1,3.9-10.6,4.9-16.2c0.1-0.1,0.1,0,0.1,0c0.4-3.7,1.3-9,1.9-13.4c0,0,0-1,0-1.9
		c0-1-0.1-1.9-0.1-1.9c2.1-13.1,2.8-26.6,2.5-40c-0.1-13.5-1-26.9-1.9-40.4c-1.2-15.3-2.8-29.5-5.1-43.6c-2.3-14.1-5.3-28-9.9-42.2
		c0.1,0,0.1-0.2,0.4,0.5c-2.3-8.3-3.9-15.9-6.7-23.6h0.1c-3.5-9.4-7-19.3-11-28.8c-4-9.5-8.7-18.9-14.7-26.5
		c-0.8-1.2-1.7-2.4-2.7-3.6c-0.8-1.2-1.9-2.3-2.9-3.5c-1-1.2-2.1-2.2-3.2-3.4c-1.2-1.1-2.2-2.1-3.5-3.1c-1.2-1.1-2.5-1.9-3.8-2.8
		l-2.1-1.2c-0.7-0.4-1.5-0.6-2.2-1c-3-1.2-6.2-1.7-9.3-2c-6.4-0.6-13,0.4-18.8,3.2c-5.8,2.8-10.7,7-15,11.6l-0.2-0.2
		c-6.6,7.5-12,15.8-17,24.3c-2.4,4.2-4.8,8.6-7,12.9c-1.1,2.2-2.1,4.5-3.2,6.7c-1.1,2.2-1.8,4.7-2.8,6.9c-0.5,1.2-1.1,2.3-1.5,3.6
		c-0.4,1.3-0.8,2.4-1.3,3.7c-0.8,2.4-1.6,5-2.3,7.4c-0.6,2.5-1.3,5.1-1.9,7.6c-0.3,1.3-0.6,2.5-1,3.8l-0.8,3.9l-1.6,7.7
		c-0.5,2.5-1,5.2-1.5,7.7s-1.1,5.1-1.6,7.6c-0.5,2.5-1.1,5.1-1.6,7.6c-1.9,6.2-2.8,13.5-3.6,20.7c-0.4,3.6-0.7,7.2-1.2,10.6
		c-0.5,3.4-1.1,6.7-1.8,9.5c-1.4,6-2.5,12-3.4,18c-0.4,3-0.8,6-1.2,9c-0.3,3-0.6,6-0.8,9c-0.5,6-0.8,12.1-1.2,18.1
		c-0.1,3.1-0.2,6-0.3,9.1c-0.1,3.1-0.2,6.2-0.2,9.2c-0.2,2.9-0.5,5.6-0.6,8.5c-0.1,2.9-0.2,5.6-0.3,8.5c-0.1,2.9-0.1,5.6-0.1,8.5
		v4.2c0,1.4,0.1,2.8,0.2,4.1c0.8,11.1,4.5,21.6,9,31.7c2.9,4.3,5.5,9,8.6,13.8c3.1,4.8,6.5,9.4,10.7,13.6v-0.5
		c2.2,3.7,7.6,5.4,8.5,8.3l-0.4-0.2c1.2,2,5.1,2,5.5,3.5l0.5-0.1c2.1,1.6,0,0.5,1.5,1.9c0.6,0.4,0.6-0.3,1.8,0.8
		c-0.3,0.7,1,1.7,2.3,2.5c1.4,1,2.7,1.8,2.2,2.5c-1.2-0.8,1.5,1.9-1.4,0.3c0.6,0.7,4.5,3.2,4.6,2.3c0.7-0.4,2.5-0.1,0.6-2.1
		l-0.7,0.2c-0.4-1-0.4-0.6-0.4-1.2c-2.9-2-2.8-3.1-4.6-4.8v0.1c-1.8-0.5-3.4-2.2-4.3-3.2l-0.2-0.6c-0.2-1.1-3.9-1.6-2.3-1.7
		c-5.6-4.3-11.6-10.1-16.8-16.1c-1.1-0.5-3.8-4.7-3.4-2.9c-0.5-2.1-3.8-7-5.1-8.8c0.1,0,0.2,0,0.4,0.3c-0.6-2.1-1.6-3-2.4-3.9
		c-0.8-1-1.7-1.8-2-3.9c-0.6,0-1.4-1.6-2.2-3.4c-0.8-1.8-1.7-3.8-2.8-4.6c0-0.5,0.2-0.7,0.4-0.6c-1.4-3.3-2.4-6.8-3.3-10.3
		c-0.7-3.5-1.3-6.8-1.6-9.8c-0.3-1.3-0.6-2.7-0.6-4c-0.1-1.5-0.1-3,0-4.5c0.1-3.1,0.1-6-0.4-8.3c0.2-1.9,0.5-4.3,0.7-6.9
		c0.1-1.3,0.2-2.7,0.2-4c0.1-1.4,0.1-2.8,0-4l0.1,0.5c0.1-3,0.3-6.3,0.3-9.3c0.1-3.1,0.1-5.9-0.1-8c1.4-1.6,1.3-4.2,1.9-6.7
		c-0.2-3.9,0.6-11.9,0.8-17.9c0.6-0.8,0.3-5,1.2-5.2c0.2-17,3.6-37.5,7.8-55v0.3c-0.1-2.3-0.6-5.2-0.8-7.6c0.1-0.2,0.2-0.2,0.1,0.3
		c0.4-3.3,1.8-6.2,2.2-9.4c0.1,0,0.1,0,0.2,0.6c0.2-3.1,1.8-6.2,1.9-9.8l0.2-0.1l0.2-2.3c0.2,0.1,0.6,0.3,0.3,1.5
		c0.7-3.4,1.5-6.9,2.2-10.4c0.7-3.5,1.6-6.9,2.3-10.4c0.7-3.5,1.7-6.9,2.5-10.4c0.4-1.7,0.8-3.5,1.4-5.2l1.6-5.1l1.6-5.1
		c0.5-1.7,1.3-3.4,1.9-5c0.6-1.7,1.3-3.4,1.9-5c0.7-1.7,1.4-3.3,2.2-5c3-6.6,6.2-13,9.9-19.3l-0.3,1.1c0,0,0.6-1.3,1.2-2.5l1.3-2.5
		c0.1,0.1,0,0.3-0.1,0.6c4-5.8,7.7-12.2,12.5-17.2c0.1,0.1-0.4,1.1,0.3,0.4c0.7-1.1,1.5-1.9,2.3-2.5c0.7-0.7,1.5-1.3,2.2-1.7
		c0.6-0.5,1.3-1,1.8-1.4c0.5-0.5,1-1.1,1.2-1.7c0.2-0.1,0.5,0.1,0.2,0.5c2.8-2.1,5.7-3.8,9-5.1c3.3-1.3,6.7-1.9,10.2-2
		c3.5-0.1,7,0.3,10.5,1.2c3.3,0.8,6.4,2.4,9.1,4.6c5.1,2.9,9.4,7.7,13,12.9c3.7,5.2,6.9,10.8,10.2,16.2l-0.3,0.1
		c4,7,7.3,14.7,10.1,22.7c2.9,8,5.2,16.1,7.6,24.2c1.8,6.7,3.4,11.2,5.1,18l-0.3,0.2c2.1,5.6,3.2,11.7,4.1,17.9
		c1.1,6.2,1.9,12.4,3.7,18.3l-0.6-0.7c1.1,1.8,1,7.4,2.1,6.5v2.2c3,8.1,1.5,15.2,3.8,25.2l-0.4-0.6c0.5,2.7,1.1,5.8,1.1,7.8
		c-0.1-0.3-0.1-0.1-0.3-0.7c-0.3,8.6,1.8,17.9,2.2,26.9l-0.6-1c1,4.3,0.6,12.3,1.1,18l-0.3-0.3c0,0,0.1,0.7,0.2,1.5
		c0.1,0.7,0.2,1.5,0.2,1.5l-0.5,0.1C394.9,439.6,395.3,446.7,395,453.9"/>
</g>
</svg>
